<svg width="45" height="44" viewBox="0 0 45 44" fill="none" xmlns="http://www.w3.org/2000/svg">
<rect width="45" height="44" rx="4" fill="#181818"/>
<path d="M22.1663 19.7519L13.1663 27.7519C13.0678 27.8392 12.9531 27.9062 12.8287 27.9491C12.7044 27.992 12.5727 28.01 12.4414 28.0021C12.3101 27.9941 12.1816 27.9604 12.0633 27.9028C11.945 27.8452 11.8392 27.7648 11.7519 27.6663C11.6647 27.5678 11.5977 27.4531 11.5548 27.3287C11.5119 27.2044 11.4939 27.0727 11.5018 26.9414C11.5098 26.8101 11.5435 26.6816 11.6011 26.5633C11.6587 26.445 11.7391 26.3392 11.8376 26.2519L20.0026 19.0019L11.8388 11.7519C11.7403 11.6647 11.66 11.5589 11.6024 11.4406C11.5448 11.3223 11.511 11.1938 11.5031 11.0625C11.4951 10.9312 11.5131 10.7995 11.556 10.6752C11.599 10.5508 11.6659 10.4361 11.7532 10.3376C11.8404 10.2391 11.9462 10.1587 12.0645 10.1011C12.1828 10.0435 12.3113 10.0098 12.4426 10.0018C12.574 9.99388 12.7056 10.0119 12.83 10.0548C12.9544 10.0977 13.0691 10.1647 13.1676 10.2519L22.1676 18.2519C22.274 18.3458 22.3592 18.4612 22.4176 18.5905C22.4759 18.7198 22.5061 18.8601 22.5061 19.0019C22.5061 19.1438 22.4759 19.2841 22.4176 19.4134C22.3592 19.5427 22.274 19.6581 22.1676 19.7519H22.1663ZM34.5026 26.0019H22.5026C22.2374 26.0019 21.983 26.1073 21.7955 26.2948C21.6079 26.4824 21.5026 26.7367 21.5026 27.0019C21.5026 27.2672 21.6079 27.5215 21.7955 27.7091C21.983 27.8966 22.2374 28.0019 22.5026 28.0019H34.5026C34.7678 28.0019 35.0221 27.8966 35.2097 27.7091C35.3972 27.5215 35.5026 27.2672 35.5026 27.0019C35.5026 26.7367 35.3972 26.4824 35.2097 26.2948C35.0221 26.1073 34.7678 26.0019 34.5026 26.0019Z" fill="white"/>
</svg>
