<svg width="2035" height="1208" viewBox="0 0 2035 1208" fill="none" xmlns="http://www.w3.org/2000/svg">
<rect width="2035" height="1208" rx="6" fill="#111111"/>
<rect width="1407" height="960" transform="translate(84 124)" fill="url(#paint0_linear_9_47)"/>
<rect x="367.5" y="353" width="840" height="502" rx="4" fill="#212121"/>
<circle cx="395.5" cy="390.625" r="11" fill="#DB3636"/>
<circle cx="433.5" cy="390" r="11" fill="#CAB600"/>
<circle cx="471.5" cy="390.641" r="11" fill="#23B228"/>
<path d="M567.308 388.288H562.1V386.224H574.988V388.288H569.78V403H567.308V388.288ZM580.716 403.36C578.588 403.36 576.916 402.832 575.7 401.776C574.5 400.704 573.9 399.2 573.9 397.264C573.9 395.376 574.436 393.88 575.508 392.776C576.596 391.672 578.14 391.12 580.14 391.12C581.468 391.12 582.596 391.376 583.524 391.888C584.452 392.384 585.148 393.08 585.612 393.976C586.092 394.856 586.332 395.864 586.332 397V398.2H576.204C576.284 399.288 576.74 400.104 577.572 400.648C578.42 401.176 579.564 401.44 581.004 401.44C581.74 401.44 582.484 401.376 583.236 401.248C583.988 401.104 584.652 400.92 585.228 400.696V402.64C584.716 402.848 584.036 403.016 583.188 403.144C582.356 403.288 581.532 403.36 580.716 403.36ZM584.052 396.496C584.02 395.408 583.66 394.568 582.972 393.976C582.3 393.368 581.34 393.064 580.092 393.064C578.876 393.064 577.932 393.376 577.26 394C576.588 394.624 576.236 395.456 576.204 396.496H584.052ZM588.982 391.48H591.334V393.544C591.814 392.84 592.486 392.32 593.35 391.984C594.23 391.648 595.246 391.48 596.398 391.48V393.376C595.166 393.376 594.11 393.576 593.23 393.976C592.35 394.376 591.742 395.008 591.406 395.872V403H588.982V391.48ZM598.568 391.48H600.872V393.136C601.416 392.464 602.032 391.96 602.72 391.624C603.408 391.288 604.12 391.12 604.856 391.12C605.784 391.12 606.52 391.28 607.064 391.6C607.608 391.904 608.008 392.376 608.264 393.016C608.776 392.392 609.4 391.92 610.136 391.6C610.888 391.28 611.64 391.12 612.392 391.12C613.8 391.12 614.816 391.48 615.44 392.2C616.064 392.904 616.376 393.952 616.376 395.344V403H614.024V395.656C614.024 394.712 613.848 394.048 613.496 393.664C613.144 393.264 612.544 393.064 611.696 393.064C610.48 393.064 609.488 393.592 608.72 394.648C608.752 394.888 608.768 395.28 608.768 395.824V403H606.416V395.656C606.416 394.712 606.256 394.048 605.936 393.664C605.616 393.264 605.04 393.064 604.208 393.064C602.992 393.064 601.904 393.752 600.944 395.128V403H598.568V391.48ZM620.796 389.224C620.396 389.224 620.06 389.088 619.788 388.816C619.516 388.544 619.38 388.208 619.38 387.808C619.38 387.408 619.516 387.072 619.788 386.8C620.06 386.528 620.396 386.392 620.796 386.392C621.212 386.392 621.556 386.528 621.828 386.8C622.116 387.072 622.26 387.408 622.26 387.808C622.26 388.208 622.116 388.544 621.828 388.816C621.556 389.088 621.212 389.224 620.796 389.224ZM619.572 391.48H622.044V403H619.572V391.48ZM625.38 391.48H627.732V393.136C628.276 392.448 628.94 391.944 629.724 391.624C630.524 391.288 631.356 391.12 632.22 391.12C633.756 391.12 634.9 391.528 635.652 392.344C636.404 393.16 636.78 394.256 636.78 395.632V403H634.356V395.872C634.356 394 633.46 393.064 631.668 393.064C630.9 393.064 630.18 393.248 629.508 393.616C628.852 393.968 628.284 394.512 627.804 395.248V403H625.38V391.48ZM643.547 403.36C642.155 403.36 641.035 403.008 640.187 402.304C639.355 401.584 638.939 400.616 638.939 399.4C638.939 398.12 639.339 397.136 640.139 396.448C640.955 395.744 642.107 395.392 643.595 395.392C645.179 395.392 646.523 395.712 647.627 396.352V395.752C647.627 394.84 647.347 394.168 646.787 393.736C646.243 393.288 645.379 393.064 644.195 393.064C643.491 393.064 642.803 393.136 642.131 393.28C641.475 393.408 640.883 393.592 640.355 393.832V391.864C640.835 391.64 641.459 391.464 642.227 391.336C642.995 391.192 643.739 391.12 644.459 391.12C646.363 391.12 647.771 391.544 648.683 392.392C649.611 393.224 650.075 394.384 650.075 395.872V403H647.795V401.704C647.299 402.248 646.707 402.664 646.019 402.952C645.347 403.224 644.523 403.36 643.547 403.36ZM644.147 401.512C644.915 401.512 645.611 401.36 646.235 401.056C646.859 400.752 647.323 400.328 647.627 399.784V398.224C646.587 397.552 645.427 397.216 644.147 397.216C643.219 397.216 642.523 397.4 642.059 397.768C641.611 398.12 641.387 398.664 641.387 399.4C641.387 400.808 642.307 401.512 644.147 401.512ZM653.083 385.264H655.507V403H653.083V385.264ZM667.521 386.224H675.225C676.713 386.224 677.865 386.608 678.681 387.376C679.497 388.144 679.905 389.264 679.905 390.736C679.905 391.568 679.705 392.304 679.305 392.944C678.921 393.568 678.409 394.032 677.769 394.336C679.561 394.864 680.457 396.168 680.457 398.248C680.457 399.224 680.241 400.072 679.809 400.792C679.393 401.496 678.817 402.04 678.081 402.424C677.345 402.808 676.529 403 675.633 403H667.521V386.224ZM674.913 393.424C675.697 393.424 676.313 393.208 676.761 392.776C677.209 392.344 677.433 391.704 677.433 390.856C677.433 389.88 677.209 389.2 676.761 388.816C676.329 388.416 675.657 388.216 674.745 388.216H669.969V393.424H674.913ZM675.081 401.008C676.025 401.008 676.745 400.8 677.241 400.384C677.737 399.968 677.985 399.256 677.985 398.248C677.985 397.24 677.721 396.52 677.193 396.088C676.681 395.656 675.905 395.44 674.865 395.44H669.969V401.008H675.081ZM687.691 403.36C686.139 403.36 684.963 402.944 684.163 402.112C683.379 401.28 682.987 400.168 682.987 398.776V391.48H685.411V398.68C685.411 400.52 686.331 401.44 688.171 401.44C689.787 401.44 691.051 400.712 691.963 399.256V391.48H694.387V403H692.035V401.368C691.491 402.056 690.843 402.56 690.091 402.88C689.355 403.2 688.555 403.36 687.691 403.36ZM698.914 389.224C698.514 389.224 698.178 389.088 697.906 388.816C697.634 388.544 697.498 388.208 697.498 387.808C697.498 387.408 697.634 387.072 697.906 386.8C698.178 386.528 698.514 386.392 698.914 386.392C699.33 386.392 699.674 386.528 699.946 386.8C700.234 387.072 700.378 387.408 700.378 387.808C700.378 388.208 700.234 388.544 699.946 388.816C699.674 389.088 699.33 389.224 698.914 389.224ZM697.69 391.48H700.162V403H697.69V391.48ZM703.498 385.264H705.922V403H703.498V385.264ZM714.62 403.36C713.468 403.36 712.428 403.112 711.5 402.616C710.588 402.104 709.868 401.392 709.34 400.48C708.828 399.552 708.572 398.48 708.572 397.264C708.572 396.064 708.828 395 709.34 394.072C709.868 393.144 710.588 392.424 711.5 391.912C712.428 391.384 713.468 391.12 714.62 391.12C716.7 391.12 718.276 391.752 719.348 393.016V385.264H721.772V403H719.42V401.32C718.78 402.024 718.076 402.544 717.308 402.88C716.556 403.2 715.66 403.36 714.62 403.36ZM715.172 401.44C716.164 401.44 717.028 401.184 717.764 400.672C718.516 400.144 719.044 399.44 719.348 398.56V395.968C719.076 395.088 718.556 394.384 717.788 393.856C717.036 393.328 716.164 393.064 715.172 393.064C714.388 393.064 713.676 393.24 713.036 393.592C712.412 393.944 711.916 394.44 711.548 395.08C711.196 395.72 711.02 396.448 711.02 397.264C711.02 398.08 711.196 398.808 711.548 399.448C711.916 400.088 712.412 400.584 713.036 400.936C713.676 401.272 714.388 401.44 715.172 401.44ZM731.232 403.36C729.104 403.36 727.432 402.832 726.216 401.776C725.016 400.704 724.416 399.2 724.416 397.264C724.416 395.376 724.952 393.88 726.024 392.776C727.112 391.672 728.656 391.12 730.656 391.12C731.984 391.12 733.112 391.376 734.04 391.888C734.968 392.384 735.664 393.08 736.128 393.976C736.608 394.856 736.848 395.864 736.848 397V398.2H726.72C726.8 399.288 727.256 400.104 728.088 400.648C728.936 401.176 730.08 401.44 731.52 401.44C732.256 401.44 733 401.376 733.752 401.248C734.504 401.104 735.168 400.92 735.744 400.696V402.64C735.232 402.848 734.552 403.016 733.704 403.144C732.872 403.288 732.048 403.36 731.232 403.36ZM734.568 396.496C734.536 395.408 734.176 394.568 733.488 393.976C732.816 393.368 731.856 393.064 730.608 393.064C729.392 393.064 728.448 393.376 727.776 394C727.104 394.624 726.752 395.456 726.72 396.496H734.568ZM745.066 403.36C743.914 403.36 742.874 403.112 741.946 402.616C741.034 402.104 740.314 401.392 739.786 400.48C739.274 399.552 739.018 398.48 739.018 397.264C739.018 396.064 739.274 395 739.786 394.072C740.314 393.144 741.034 392.424 741.946 391.912C742.874 391.384 743.914 391.12 745.066 391.12C747.146 391.12 748.722 391.752 749.794 393.016V385.264H752.218V403H749.866V401.32C749.226 402.024 748.522 402.544 747.754 402.88C747.002 403.2 746.106 403.36 745.066 403.36ZM745.618 401.44C746.61 401.44 747.474 401.184 748.21 400.672C748.962 400.144 749.49 399.44 749.794 398.56V395.968C749.522 395.088 749.002 394.384 748.234 393.856C747.482 393.328 746.61 393.064 745.618 393.064C744.834 393.064 744.122 393.24 743.482 393.592C742.858 393.944 742.362 394.44 741.994 395.08C741.642 395.72 741.465 396.448 741.465 397.264C741.465 398.08 741.642 398.808 741.994 399.448C742.362 400.088 742.858 400.584 743.482 400.936C744.122 401.272 744.834 401.44 745.618 401.44ZM771.376 403.36C770.336 403.36 769.432 403.2 768.664 402.88C767.912 402.544 767.216 402.024 766.576 401.32V403H764.224V385.264H766.648V393.016C767.176 392.392 767.856 391.92 768.688 391.6C769.52 391.28 770.416 391.12 771.376 391.12C772.528 391.12 773.56 391.384 774.472 391.912C775.4 392.424 776.12 393.144 776.632 394.072C777.16 395 777.424 396.064 777.424 397.264C777.424 398.48 777.16 399.552 776.632 400.48C776.12 401.392 775.4 402.104 774.472 402.616C773.56 403.112 772.528 403.36 771.376 403.36ZM770.824 401.44C771.608 401.44 772.312 401.272 772.936 400.936C773.576 400.584 774.072 400.088 774.424 399.448C774.792 398.808 774.976 398.08 774.976 397.264C774.976 396.448 774.792 395.72 774.424 395.08C774.072 394.44 773.576 393.944 772.936 393.592C772.312 393.24 771.608 393.064 770.824 393.064C769.848 393.064 768.976 393.328 768.208 393.856C767.44 394.384 766.92 395.088 766.648 395.968V398.56C766.952 399.44 767.472 400.144 768.208 400.672C768.96 401.184 769.832 401.44 770.824 401.44ZM780.946 407.752C780.082 407.752 779.362 407.664 778.786 407.488V405.592C779.202 405.752 779.714 405.832 780.322 405.832C780.882 405.832 781.322 405.688 781.642 405.4C781.962 405.128 782.25 404.68 782.506 404.056L783.058 402.712L778.018 391.48H780.514L784.354 400.336L787.93 391.48H790.426L785.242 404.296C784.762 405.496 784.186 406.368 783.514 406.912C782.858 407.472 782.002 407.752 780.946 407.752ZM801.466 386.224H807.922C809.73 386.224 811.154 386.68 812.194 387.592C813.25 388.488 813.778 389.768 813.778 391.432C813.778 393.128 813.258 394.416 812.218 395.296C811.178 396.16 809.746 396.592 807.922 396.592H803.914V403H801.466V386.224ZM807.658 394.552C808.778 394.552 809.666 394.32 810.322 393.856C810.978 393.392 811.306 392.584 811.306 391.432C811.306 390.28 810.978 389.472 810.322 389.008C809.666 388.528 808.778 388.288 807.658 388.288H803.914V394.552H807.658ZM820.951 403.36C818.823 403.36 817.151 402.832 815.935 401.776C814.735 400.704 814.135 399.2 814.135 397.264C814.135 395.376 814.671 393.88 815.743 392.776C816.831 391.672 818.375 391.12 820.375 391.12C821.703 391.12 822.831 391.376 823.759 391.888C824.687 392.384 825.383 393.08 825.847 393.976C826.327 394.856 826.567 395.864 826.567 397V398.2H816.439C816.519 399.288 816.975 400.104 817.807 400.648C818.655 401.176 819.799 401.44 821.239 401.44C821.975 401.44 822.719 401.376 823.471 401.248C824.223 401.104 824.887 400.92 825.463 400.696V402.64C824.951 402.848 824.271 403.016 823.423 403.144C822.591 403.288 821.767 403.36 820.951 403.36ZM824.287 396.496C824.255 395.408 823.895 394.568 823.207 393.976C822.535 393.368 821.575 393.064 820.327 393.064C819.111 393.064 818.167 393.376 817.495 394C816.823 394.624 816.471 395.456 816.439 396.496H824.287ZM834.784 403.36C833.632 403.36 832.592 403.112 831.664 402.616C830.752 402.104 830.032 401.392 829.504 400.48C828.992 399.552 828.736 398.48 828.736 397.264C828.736 396.064 828.992 395 829.504 394.072C830.032 393.144 830.752 392.424 831.664 391.912C832.592 391.384 833.632 391.12 834.784 391.12C836.864 391.12 838.44 391.752 839.512 393.016V385.264H841.936V403H839.584V401.32C838.944 402.024 838.24 402.544 837.472 402.88C836.72 403.2 835.824 403.36 834.784 403.36ZM835.336 401.44C836.328 401.44 837.192 401.184 837.928 400.672C838.68 400.144 839.208 399.44 839.512 398.56V395.968C839.24 395.088 838.72 394.384 837.952 393.856C837.2 393.328 836.328 393.064 835.336 393.064C834.552 393.064 833.84 393.24 833.2 393.592C832.576 393.944 832.08 394.44 831.712 395.08C831.36 395.72 831.184 396.448 831.184 397.264C831.184 398.08 831.36 398.808 831.712 399.448C832.08 400.088 832.576 400.584 833.2 400.936C833.84 401.272 834.552 401.44 835.336 401.44ZM845.06 391.48H847.412V393.544C847.892 392.84 848.564 392.32 849.428 391.984C850.308 391.648 851.324 391.48 852.476 391.48V393.376C851.244 393.376 850.188 393.576 849.308 393.976C848.428 394.376 847.82 395.008 847.484 395.872V403H845.06V391.48ZM860.366 403.36C859.07 403.36 857.926 403.12 856.934 402.64C855.958 402.144 855.19 401.44 854.63 400.528C854.086 399.6 853.814 398.512 853.814 397.264C853.814 396.032 854.086 394.952 854.63 394.024C855.174 393.096 855.942 392.384 856.934 391.888C857.926 391.376 859.07 391.12 860.366 391.12C861.662 391.12 862.806 391.376 863.798 391.888C864.79 392.384 865.558 393.096 866.102 394.024C866.662 394.952 866.942 396.032 866.942 397.264C866.942 398.512 866.662 399.6 866.102 400.528C865.558 401.44 864.79 402.144 863.798 402.64C862.806 403.12 861.662 403.36 860.366 403.36ZM860.366 401.44C861.614 401.44 862.606 401.056 863.342 400.288C864.078 399.52 864.446 398.512 864.446 397.264C864.446 395.968 864.078 394.944 863.342 394.192C862.606 393.44 861.614 393.064 860.366 393.064C859.118 393.064 858.126 393.44 857.39 394.192C856.654 394.944 856.286 395.968 856.286 397.264C856.286 398.512 856.654 399.52 857.39 400.288C858.126 401.056 859.118 401.44 860.366 401.44ZM878.458 386.224H883.858C885.666 386.224 887.234 386.56 888.562 387.232C889.89 387.904 890.906 388.864 891.61 390.112C892.33 391.36 892.69 392.832 892.69 394.528C892.69 397.312 891.882 399.424 890.266 400.864C888.666 402.288 886.418 403 883.522 403H878.458V386.224ZM883.498 400.96C885.738 400.96 887.418 400.408 888.538 399.304C889.658 398.2 890.218 396.608 890.218 394.528C890.218 392.608 889.666 391.088 888.562 389.968C887.474 388.848 885.914 388.288 883.882 388.288H880.906V400.96H883.498ZM896.749 389.224C896.349 389.224 896.013 389.088 895.741 388.816C895.469 388.544 895.333 388.208 895.333 387.808C895.333 387.408 895.469 387.072 895.741 386.8C896.013 386.528 896.349 386.392 896.749 386.392C897.165 386.392 897.509 386.528 897.781 386.8C898.069 387.072 898.213 387.408 898.213 387.808C898.213 388.208 898.069 388.544 897.781 388.816C897.509 389.088 897.165 389.224 896.749 389.224ZM895.525 391.48H897.997V403H895.525V391.48ZM905.461 403.36C904.069 403.36 902.949 403.008 902.101 402.304C901.269 401.584 900.853 400.616 900.853 399.4C900.853 398.12 901.253 397.136 902.053 396.448C902.869 395.744 904.021 395.392 905.509 395.392C907.093 395.392 908.437 395.712 909.541 396.352V395.752C909.541 394.84 909.261 394.168 908.701 393.736C908.157 393.288 907.293 393.064 906.109 393.064C905.405 393.064 904.717 393.136 904.045 393.28C903.389 393.408 902.797 393.592 902.269 393.832V391.864C902.749 391.64 903.373 391.464 904.141 391.336C904.909 391.192 905.653 391.12 906.373 391.12C908.277 391.12 909.685 391.544 910.597 392.392C911.525 393.224 911.989 394.384 911.989 395.872V403H909.709V401.704C909.213 402.248 908.621 402.664 907.933 402.952C907.261 403.224 906.437 403.36 905.461 403.36ZM906.061 401.512C906.829 401.512 907.525 401.36 908.149 401.056C908.773 400.752 909.237 400.328 909.541 399.784V398.224C908.501 397.552 907.341 397.216 906.061 397.216C905.133 397.216 904.437 397.4 903.973 397.768C903.525 398.12 903.301 398.664 903.301 399.4C903.301 400.808 904.221 401.512 906.061 401.512ZM918.894 403.36C918.094 403.36 917.246 403.256 916.35 403.048C915.454 402.856 914.75 402.592 914.238 402.256V400.192C914.862 400.56 915.582 400.864 916.398 401.104C917.214 401.328 918.006 401.44 918.774 401.44C919.638 401.44 920.27 401.336 920.67 401.128C921.07 400.92 921.27 400.584 921.27 400.12C921.27 399.768 921.174 399.488 920.982 399.28C920.806 399.056 920.494 398.856 920.046 398.68C919.614 398.504 918.958 398.296 918.078 398.056C917.134 397.784 916.382 397.512 915.822 397.24C915.278 396.952 914.862 396.592 914.574 396.16C914.302 395.728 914.166 395.168 914.166 394.48C914.166 393.376 914.598 392.544 915.462 391.984C916.342 391.408 917.518 391.12 918.99 391.12C919.758 391.12 920.51 391.192 921.246 391.336C921.982 391.48 922.574 391.68 923.022 391.936V393.952C922.558 393.68 921.982 393.464 921.294 393.304C920.622 393.144 919.934 393.064 919.23 393.064C918.382 393.064 917.734 393.168 917.286 393.376C916.838 393.584 916.614 393.952 916.614 394.48C916.614 394.816 916.71 395.088 916.902 395.296C917.094 395.504 917.398 395.688 917.814 395.848C918.246 395.992 918.926 396.184 919.854 396.424C921.31 396.824 922.318 397.296 922.878 397.84C923.454 398.384 923.742 399.136 923.742 400.096C923.742 401.088 923.334 401.88 922.518 402.472C921.702 403.064 920.494 403.36 918.894 403.36ZM941.631 385.864H944.079L937.239 403H934.791L941.631 385.864ZM955.111 386.224H957.703L962.983 399.664L968.263 386.224H970.855L964.159 403H961.807L955.111 386.224ZM981.9 394.864H989.556V396.856H981.9V394.864ZM1004.23 388.864L1000.6 391.48V389.152L1004.56 386.224H1006.68V403H1004.23V388.864ZM1010.45 403C1010.13 403 1009.86 402.896 1009.63 402.688C1009.43 402.464 1009.32 402.192 1009.32 401.872C1009.32 401.552 1009.43 401.28 1009.63 401.056C1009.86 400.832 1010.13 400.72 1010.45 400.72C1010.77 400.72 1011.04 400.832 1011.27 401.056C1011.49 401.28 1011.6 401.552 1011.6 401.872C1011.6 402.192 1011.49 402.464 1011.27 402.688C1011.04 402.896 1010.77 403 1010.45 403ZM1020.74 403.36C1019.3 403.36 1018.05 403.008 1016.99 402.304C1015.95 401.6 1015.15 400.592 1014.59 399.28C1014.03 397.968 1013.75 396.416 1013.75 394.624C1013.75 392.832 1014.02 391.28 1014.57 389.968C1015.13 388.64 1015.93 387.624 1016.97 386.92C1018.02 386.216 1019.28 385.864 1020.74 385.864C1022.19 385.864 1023.44 386.216 1024.48 386.92C1025.54 387.624 1026.34 388.64 1026.88 389.968C1027.44 391.28 1027.72 392.832 1027.72 394.624C1027.72 396.416 1027.44 397.968 1026.88 399.28C1026.32 400.592 1025.51 401.6 1024.46 402.304C1023.42 403.008 1022.18 403.36 1020.74 403.36ZM1020.74 401.2C1022.16 401.2 1023.27 400.616 1024.07 399.448C1024.89 398.264 1025.3 396.664 1025.3 394.648C1025.3 392.632 1024.9 391.032 1024.1 389.848C1023.3 388.664 1022.18 388.072 1020.74 388.072C1019.3 388.072 1018.18 388.664 1017.38 389.848C1016.58 391.032 1016.18 392.632 1016.18 394.648C1016.18 396.664 1016.58 398.264 1017.38 399.448C1018.19 400.616 1019.31 401.2 1020.74 401.2ZM1031 403C1030.68 403 1030.41 402.896 1030.19 402.688C1029.98 402.464 1029.88 402.192 1029.88 401.872C1029.88 401.552 1029.98 401.28 1030.19 401.056C1030.41 400.832 1030.68 400.72 1031 400.72C1031.32 400.72 1031.6 400.832 1031.82 401.056C1032.04 401.28 1032.16 401.552 1032.16 401.872C1032.16 402.192 1032.04 402.464 1031.82 402.688C1031.6 402.896 1031.32 403 1031 403ZM1041.29 403.36C1039.85 403.36 1038.6 403.008 1037.55 402.304C1036.51 401.6 1035.71 400.592 1035.15 399.28C1034.59 397.968 1034.31 396.416 1034.31 394.624C1034.31 392.832 1034.58 391.28 1035.12 389.968C1035.68 388.64 1036.48 387.624 1037.52 386.92C1038.58 386.216 1039.83 385.864 1041.29 385.864C1042.75 385.864 1043.99 386.216 1045.03 386.92C1046.09 387.624 1046.89 388.64 1047.43 389.968C1047.99 391.28 1048.27 392.832 1048.27 394.624C1048.27 396.416 1047.99 397.968 1047.43 399.28C1046.87 400.592 1046.07 401.6 1045.01 402.304C1043.97 403.008 1042.73 403.36 1041.29 403.36ZM1041.29 401.2C1042.71 401.2 1043.83 400.616 1044.63 399.448C1045.44 398.264 1045.85 396.664 1045.85 394.648C1045.85 392.632 1045.45 391.032 1044.65 389.848C1043.85 388.664 1042.73 388.072 1041.29 388.072C1039.85 388.072 1038.73 388.664 1037.93 389.848C1037.13 391.032 1036.73 392.632 1036.73 394.648C1036.73 396.664 1037.13 398.264 1037.93 399.448C1038.75 400.616 1039.87 401.2 1041.29 401.2Z" fill="white"/>
<path d="M390.308 457.288H385.1V455.224H397.988V457.288H392.78V472H390.308V457.288ZM399.594 476.752C398.73 476.752 398.01 476.664 397.434 476.488V474.592C397.85 474.752 398.362 474.832 398.97 474.832C399.53 474.832 399.97 474.688 400.29 474.4C400.61 474.128 400.898 473.68 401.154 473.056L401.706 471.712L396.666 460.48H399.162L403.002 469.336L406.578 460.48H409.074L403.89 473.296C403.41 474.496 402.834 475.368 402.162 475.912C401.506 476.472 400.65 476.752 399.594 476.752ZM410.623 460.48H412.975V462.184C414.159 460.808 415.759 460.12 417.775 460.12C418.927 460.12 419.959 460.376 420.871 460.888C421.799 461.4 422.519 462.12 423.031 463.048C423.559 463.96 423.823 465.024 423.823 466.24C423.823 467.44 423.559 468.504 423.031 469.432C422.519 470.36 421.807 471.08 420.895 471.592C419.983 472.104 418.943 472.36 417.775 472.36C416.815 472.36 415.919 472.2 415.087 471.88C414.255 471.56 413.575 471.088 413.047 470.464V477.256H410.623V460.48ZM417.223 470.44C418.007 470.44 418.711 470.272 419.335 469.936C419.975 469.584 420.471 469.088 420.823 468.448C421.191 467.808 421.375 467.072 421.375 466.24C421.375 465.408 421.191 464.68 420.823 464.056C420.471 463.416 419.975 462.928 419.335 462.592C418.711 462.24 418.007 462.064 417.223 462.064C416.247 462.064 415.383 462.32 414.631 462.832C413.895 463.344 413.367 464.048 413.047 464.944V467.536C413.319 468.416 413.839 469.12 414.607 469.648C415.375 470.176 416.247 470.44 417.223 470.44ZM432.802 472.36C430.674 472.36 429.002 471.832 427.786 470.776C426.586 469.704 425.986 468.2 425.986 466.264C425.986 464.376 426.522 462.88 427.594 461.776C428.682 460.672 430.226 460.12 432.226 460.12C433.554 460.12 434.682 460.376 435.61 460.888C436.538 461.384 437.234 462.08 437.698 462.976C438.178 463.856 438.418 464.864 438.418 466V467.2H428.29C428.37 468.288 428.826 469.104 429.658 469.648C430.506 470.176 431.65 470.44 433.09 470.44C433.826 470.44 434.57 470.376 435.322 470.248C436.074 470.104 436.738 469.92 437.314 469.696V471.64C436.802 471.848 436.122 472.016 435.274 472.144C434.442 472.288 433.618 472.36 432.802 472.36ZM436.138 465.496C436.106 464.408 435.746 463.568 435.058 462.976C434.386 462.368 433.426 462.064 432.178 462.064C430.962 462.064 430.018 462.376 429.346 463C428.674 463.624 428.322 464.456 428.29 465.496H436.138ZM449.471 460.48H451.943L454.535 469.024L457.103 460.48H459.287L461.855 469.024L464.447 460.48H466.943L463.199 472H460.871L458.207 463.408L455.543 472H453.191L449.471 460.48ZM469.591 454.264H472.015V462.064C473.119 460.768 474.591 460.12 476.431 460.12C477.967 460.12 479.111 460.528 479.863 461.344C480.615 462.16 480.991 463.256 480.991 464.632V472H478.567V464.872C478.567 463 477.671 462.064 475.879 462.064C475.111 462.064 474.391 462.248 473.719 462.616C473.063 462.968 472.495 463.512 472.015 464.248V472H469.591V454.264ZM487.758 472.36C486.366 472.36 485.246 472.008 484.398 471.304C483.566 470.584 483.15 469.616 483.15 468.4C483.15 467.12 483.55 466.136 484.35 465.448C485.166 464.744 486.318 464.392 487.806 464.392C489.39 464.392 490.734 464.712 491.838 465.352V464.752C491.838 463.84 491.558 463.168 490.998 462.736C490.454 462.288 489.59 462.064 488.406 462.064C487.702 462.064 487.014 462.136 486.342 462.28C485.686 462.408 485.094 462.592 484.566 462.832V460.864C485.046 460.64 485.67 460.464 486.438 460.336C487.206 460.192 487.95 460.12 488.67 460.12C490.574 460.12 491.982 460.544 492.894 461.392C493.822 462.224 494.286 463.384 494.286 464.872V472H492.006V470.704C491.51 471.248 490.918 471.664 490.23 471.952C489.558 472.224 488.734 472.36 487.758 472.36ZM488.358 470.512C489.126 470.512 489.822 470.36 490.446 470.056C491.07 469.752 491.534 469.328 491.838 468.784V467.224C490.798 466.552 489.638 466.216 488.358 466.216C487.43 466.216 486.734 466.4 486.27 466.768C485.822 467.12 485.598 467.664 485.598 468.4C485.598 469.808 486.518 470.512 488.358 470.512ZM501.125 472.36C499.957 472.36 499.053 472.024 498.413 471.352C497.789 470.68 497.477 469.728 497.477 468.496V462.352H495.725V460.48H497.477V457.024H499.925V460.48H502.757V462.352H499.925V468.328C499.925 469.096 500.069 469.64 500.357 469.96C500.661 470.28 501.205 470.44 501.989 470.44C502.453 470.44 502.917 470.336 503.381 470.128V472.048C502.773 472.256 502.021 472.36 501.125 472.36ZM520.112 472.36C518.96 472.36 517.92 472.112 516.992 471.616C516.08 471.104 515.36 470.392 514.832 469.48C514.32 468.552 514.064 467.48 514.064 466.264C514.064 465.064 514.32 464 514.832 463.072C515.36 462.144 516.08 461.424 516.992 460.912C517.92 460.384 518.96 460.12 520.112 460.12C522.192 460.12 523.768 460.752 524.84 462.016V454.264H527.264V472H524.912V470.32C524.272 471.024 523.568 471.544 522.8 471.88C522.048 472.2 521.152 472.36 520.112 472.36ZM520.664 470.44C521.656 470.44 522.52 470.184 523.256 469.672C524.008 469.144 524.536 468.44 524.84 467.56V464.968C524.568 464.088 524.048 463.384 523.28 462.856C522.528 462.328 521.656 462.064 520.664 462.064C519.88 462.064 519.168 462.24 518.528 462.592C517.904 462.944 517.408 463.44 517.04 464.08C516.688 464.72 516.512 465.448 516.512 466.264C516.512 467.08 516.688 467.808 517.04 468.448C517.408 469.088 517.904 469.584 518.528 469.936C519.168 470.272 519.88 470.44 520.664 470.44ZM531.804 458.224C531.404 458.224 531.068 458.088 530.796 457.816C530.524 457.544 530.388 457.208 530.388 456.808C530.388 456.408 530.524 456.072 530.796 455.8C531.068 455.528 531.404 455.392 531.804 455.392C532.22 455.392 532.564 455.528 532.836 455.8C533.124 456.072 533.268 456.408 533.268 456.808C533.268 457.208 533.124 457.544 532.836 457.816C532.564 458.088 532.22 458.224 531.804 458.224ZM530.58 460.48H533.052V472H530.58V460.48ZM541.956 472.36C540.804 472.36 539.764 472.112 538.836 471.616C537.924 471.104 537.204 470.392 536.676 469.48C536.164 468.552 535.908 467.48 535.908 466.264C535.908 465.064 536.164 464 536.676 463.072C537.204 462.144 537.924 461.424 538.836 460.912C539.764 460.384 540.804 460.12 541.956 460.12C544.036 460.12 545.612 460.752 546.684 462.016V454.264H549.108V472H546.756V470.32C546.116 471.024 545.412 471.544 544.644 471.88C543.892 472.2 542.996 472.36 541.956 472.36ZM542.508 470.44C543.5 470.44 544.364 470.184 545.1 469.672C545.852 469.144 546.38 468.44 546.684 467.56V464.968C546.412 464.088 545.892 463.384 545.124 462.856C544.372 462.328 543.5 462.064 542.508 462.064C541.724 462.064 541.012 462.24 540.372 462.592C539.748 462.944 539.252 463.44 538.884 464.08C538.532 464.72 538.356 465.448 538.356 466.264C538.356 467.08 538.532 467.808 538.884 468.448C539.252 469.088 539.748 469.584 540.372 469.936C541.012 470.272 541.724 470.44 542.508 470.44ZM563.563 476.752C562.699 476.752 561.979 476.664 561.403 476.488V474.592C561.819 474.752 562.331 474.832 562.939 474.832C563.499 474.832 563.939 474.688 564.259 474.4C564.579 474.128 564.867 473.68 565.123 473.056L565.675 471.712L560.635 460.48H563.131L566.971 469.336L570.547 460.48H573.043L567.859 473.296C567.379 474.496 566.803 475.368 566.131 475.912C565.475 476.472 564.619 476.752 563.563 476.752ZM579.702 472.36C578.406 472.36 577.262 472.12 576.27 471.64C575.294 471.144 574.526 470.44 573.966 469.528C573.422 468.6 573.15 467.512 573.15 466.264C573.15 465.032 573.422 463.952 573.966 463.024C574.51 462.096 575.278 461.384 576.27 460.888C577.262 460.376 578.406 460.12 579.702 460.12C580.998 460.12 582.142 460.376 583.134 460.888C584.126 461.384 584.894 462.096 585.438 463.024C585.998 463.952 586.278 465.032 586.278 466.264C586.278 467.512 585.998 468.6 585.438 469.528C584.894 470.44 584.126 471.144 583.134 471.64C582.142 472.12 580.998 472.36 579.702 472.36ZM579.702 470.44C580.95 470.44 581.942 470.056 582.678 469.288C583.414 468.52 583.782 467.512 583.782 466.264C583.782 464.968 583.414 463.944 582.678 463.192C581.942 462.44 580.95 462.064 579.702 462.064C578.454 462.064 577.462 462.44 576.726 463.192C575.99 463.944 575.622 464.968 575.622 466.264C575.622 467.512 575.99 468.52 576.726 469.288C577.462 470.056 578.454 470.44 579.702 470.44ZM593.496 472.36C591.944 472.36 590.768 471.944 589.968 471.112C589.184 470.28 588.792 469.168 588.792 467.776V460.48H591.216V467.68C591.216 469.52 592.136 470.44 593.976 470.44C595.592 470.44 596.856 469.712 597.768 468.256V460.48H600.192V472H597.84V470.368C597.296 471.056 596.648 471.56 595.896 471.88C595.16 472.2 594.36 472.36 593.496 472.36ZM611.705 460.48H614.177L616.769 469.024L619.337 460.48H621.521L624.089 469.024L626.681 460.48H629.177L625.433 472H623.105L620.441 463.408L617.777 472H615.425L611.705 460.48ZM634.641 472.36C633.249 472.36 632.129 472.008 631.281 471.304C630.449 470.584 630.033 469.616 630.033 468.4C630.033 467.12 630.433 466.136 631.233 465.448C632.049 464.744 633.201 464.392 634.689 464.392C636.273 464.392 637.617 464.712 638.721 465.352V464.752C638.721 463.84 638.441 463.168 637.881 462.736C637.337 462.288 636.473 462.064 635.289 462.064C634.585 462.064 633.897 462.136 633.225 462.28C632.569 462.408 631.977 462.592 631.449 462.832V460.864C631.929 460.64 632.553 460.464 633.321 460.336C634.089 460.192 634.833 460.12 635.553 460.12C637.457 460.12 638.865 460.544 639.777 461.392C640.705 462.224 641.169 463.384 641.169 464.872V472H638.889V470.704C638.393 471.248 637.801 471.664 637.113 471.952C636.441 472.224 635.617 472.36 634.641 472.36ZM635.241 470.512C636.009 470.512 636.705 470.36 637.329 470.056C637.953 469.752 638.417 469.328 638.721 468.784V467.224C637.681 466.552 636.521 466.216 635.241 466.216C634.313 466.216 633.617 466.4 633.153 466.768C632.705 467.12 632.481 467.664 632.481 468.4C632.481 469.808 633.401 470.512 635.241 470.512ZM644.177 460.48H646.529V462.136C647.073 461.448 647.737 460.944 648.521 460.624C649.321 460.288 650.153 460.12 651.017 460.12C652.553 460.12 653.697 460.528 654.449 461.344C655.201 462.16 655.577 463.256 655.577 464.632V472H653.153V464.872C653.153 463 652.257 462.064 650.465 462.064C649.697 462.064 648.977 462.248 648.305 462.616C647.649 462.968 647.081 463.512 646.601 464.248V472H644.177V460.48ZM663.008 472.36C661.84 472.36 660.936 472.024 660.296 471.352C659.672 470.68 659.36 469.728 659.36 468.496V462.352H657.608V460.48H659.36V457.024H661.808V460.48H664.64V462.352H661.808V468.328C661.808 469.096 661.952 469.64 662.24 469.96C662.544 470.28 663.088 470.44 663.872 470.44C664.336 470.44 664.8 470.336 665.264 470.128V472.048C664.656 472.256 663.904 472.36 663.008 472.36ZM680.867 472.36C679.699 472.36 678.795 472.024 678.155 471.352C677.531 470.68 677.219 469.728 677.219 468.496V462.352H675.467V460.48H677.219V457.024H679.667V460.48H682.499V462.352H679.667V468.328C679.667 469.096 679.811 469.64 680.099 469.96C680.403 470.28 680.947 470.44 681.731 470.44C682.195 470.44 682.659 470.336 683.123 470.128V472.048C682.515 472.256 681.763 472.36 680.867 472.36ZM691.359 472.36C690.063 472.36 688.919 472.12 687.927 471.64C686.951 471.144 686.183 470.44 685.623 469.528C685.079 468.6 684.807 467.512 684.807 466.264C684.807 465.032 685.079 463.952 685.623 463.024C686.167 462.096 686.935 461.384 687.927 460.888C688.919 460.376 690.063 460.12 691.359 460.12C692.655 460.12 693.799 460.376 694.791 460.888C695.783 461.384 696.551 462.096 697.095 463.024C697.655 463.952 697.935 465.032 697.935 466.264C697.935 467.512 697.655 468.6 697.095 469.528C696.551 470.44 695.783 471.144 694.791 471.64C693.799 472.12 692.655 472.36 691.359 472.36ZM691.359 470.44C692.607 470.44 693.599 470.056 694.335 469.288C695.071 468.52 695.439 467.512 695.439 466.264C695.439 464.968 695.071 463.944 694.335 463.192C693.599 462.44 692.607 462.064 691.359 462.064C690.111 462.064 689.119 462.44 688.383 463.192C687.647 463.944 687.279 464.968 687.279 466.264C687.279 467.512 687.647 468.52 688.383 469.288C689.119 470.056 690.111 470.44 691.359 470.44ZM709.451 454.264H711.875V472H709.451V454.264ZM721.341 472.36C719.213 472.36 717.541 471.832 716.325 470.776C715.125 469.704 714.525 468.2 714.525 466.264C714.525 464.376 715.061 462.88 716.133 461.776C717.221 460.672 718.765 460.12 720.765 460.12C722.093 460.12 723.221 460.376 724.149 460.888C725.077 461.384 725.773 462.08 726.237 462.976C726.717 463.856 726.957 464.864 726.957 466V467.2H716.829C716.909 468.288 717.365 469.104 718.197 469.648C719.045 470.176 720.189 470.44 721.629 470.44C722.365 470.44 723.109 470.376 723.861 470.248C724.613 470.104 725.277 469.92 725.853 469.696V471.64C725.341 471.848 724.661 472.016 723.813 472.144C722.981 472.288 722.157 472.36 721.341 472.36ZM724.677 465.496C724.645 464.408 724.285 463.568 723.597 462.976C722.925 462.368 721.965 462.064 720.717 462.064C719.501 462.064 718.557 462.376 717.885 463C717.213 463.624 716.861 464.456 716.829 465.496H724.677ZM733.735 472.36C732.343 472.36 731.223 472.008 730.375 471.304C729.543 470.584 729.127 469.616 729.127 468.4C729.127 467.12 729.527 466.136 730.327 465.448C731.143 464.744 732.295 464.392 733.783 464.392C735.367 464.392 736.711 464.712 737.815 465.352V464.752C737.815 463.84 737.535 463.168 736.975 462.736C736.431 462.288 735.567 462.064 734.383 462.064C733.679 462.064 732.991 462.136 732.319 462.28C731.663 462.408 731.071 462.592 730.543 462.832V460.864C731.023 460.64 731.647 460.464 732.415 460.336C733.183 460.192 733.927 460.12 734.647 460.12C736.551 460.12 737.959 460.544 738.871 461.392C739.799 462.224 740.263 463.384 740.263 464.872V472H737.983V470.704C737.487 471.248 736.895 471.664 736.207 471.952C735.535 472.224 734.711 472.36 733.735 472.36ZM734.335 470.512C735.103 470.512 735.799 470.36 736.423 470.056C737.047 469.752 737.511 469.328 737.815 468.784V467.224C736.775 466.552 735.615 466.216 734.335 466.216C733.407 466.216 732.711 466.4 732.247 466.768C731.799 467.12 731.575 467.664 731.575 468.4C731.575 469.808 732.495 470.512 734.335 470.512ZM743.271 460.48H745.623V462.544C746.103 461.84 746.775 461.32 747.639 460.984C748.519 460.648 749.535 460.48 750.687 460.48V462.376C749.455 462.376 748.399 462.576 747.519 462.976C746.639 463.376 746.031 464.008 745.695 464.872V472H743.271V460.48ZM752.857 460.48H755.209V462.136C755.753 461.448 756.417 460.944 757.201 460.624C758.001 460.288 758.833 460.12 759.697 460.12C761.233 460.12 762.377 460.528 763.129 461.344C763.881 462.16 764.257 463.256 764.257 464.632V472H761.833V464.872C761.833 463 760.937 462.064 759.145 462.064C758.377 462.064 757.657 462.248 756.985 462.616C756.329 462.968 755.761 463.512 755.281 464.248V472H752.857V460.48ZM780.258 472.36C778.866 472.36 777.746 472.008 776.898 471.304C776.066 470.584 775.65 469.616 775.65 468.4C775.65 467.12 776.05 466.136 776.85 465.448C777.666 464.744 778.818 464.392 780.306 464.392C781.89 464.392 783.234 464.712 784.338 465.352V464.752C784.338 463.84 784.058 463.168 783.498 462.736C782.954 462.288 782.09 462.064 780.906 462.064C780.202 462.064 779.514 462.136 778.842 462.28C778.186 462.408 777.594 462.592 777.066 462.832V460.864C777.546 460.64 778.17 460.464 778.938 460.336C779.706 460.192 780.45 460.12 781.17 460.12C783.074 460.12 784.482 460.544 785.394 461.392C786.322 462.224 786.786 463.384 786.786 464.872V472H784.506V470.704C784.01 471.248 783.418 471.664 782.73 471.952C782.058 472.224 781.234 472.36 780.258 472.36ZM780.858 470.512C781.626 470.512 782.322 470.36 782.946 470.056C783.57 469.752 784.034 469.328 784.338 468.784V467.224C783.298 466.552 782.138 466.216 780.858 466.216C779.93 466.216 779.234 466.4 778.77 466.768C778.322 467.12 778.098 467.664 778.098 468.4C778.098 469.808 779.018 470.512 780.858 470.512ZM796.946 472.36C795.906 472.36 795.002 472.2 794.234 471.88C793.482 471.544 792.786 471.024 792.146 470.32V472H789.794V454.264H792.218V462.016C792.746 461.392 793.426 460.92 794.258 460.6C795.09 460.28 795.986 460.12 796.946 460.12C798.098 460.12 799.13 460.384 800.042 460.912C800.97 461.424 801.69 462.144 802.202 463.072C802.73 464 802.994 465.064 802.994 466.264C802.994 467.48 802.73 468.552 802.202 469.48C801.69 470.392 800.97 471.104 800.042 471.616C799.13 472.112 798.098 472.36 796.946 472.36ZM796.394 470.44C797.178 470.44 797.882 470.272 798.506 469.936C799.146 469.584 799.642 469.088 799.994 468.448C800.362 467.808 800.546 467.08 800.546 466.264C800.546 465.448 800.362 464.72 799.994 464.08C799.642 463.44 799.146 462.944 798.506 462.592C797.882 462.24 797.178 462.064 796.394 462.064C795.418 462.064 794.546 462.328 793.778 462.856C793.01 463.384 792.49 464.088 792.218 464.968V467.56C792.522 468.44 793.042 469.144 793.778 469.672C794.53 470.184 795.402 470.44 796.394 470.44ZM811.101 472.36C809.805 472.36 808.661 472.12 807.669 471.64C806.693 471.144 805.925 470.44 805.365 469.528C804.821 468.6 804.549 467.512 804.549 466.264C804.549 465.032 804.821 463.952 805.365 463.024C805.909 462.096 806.677 461.384 807.669 460.888C808.661 460.376 809.805 460.12 811.101 460.12C812.397 460.12 813.541 460.376 814.533 460.888C815.525 461.384 816.293 462.096 816.837 463.024C817.397 463.952 817.677 465.032 817.677 466.264C817.677 467.512 817.397 468.6 816.837 469.528C816.293 470.44 815.525 471.144 814.533 471.64C813.541 472.12 812.397 472.36 811.101 472.36ZM811.101 470.44C812.349 470.44 813.341 470.056 814.077 469.288C814.813 468.52 815.181 467.512 815.181 466.264C815.181 464.968 814.813 463.944 814.077 463.192C813.341 462.44 812.349 462.064 811.101 462.064C809.853 462.064 808.861 462.44 808.125 463.192C807.389 463.944 807.021 464.968 807.021 466.264C807.021 467.512 807.389 468.52 808.125 469.288C808.861 470.056 809.853 470.44 811.101 470.44ZM824.894 472.36C823.342 472.36 822.166 471.944 821.366 471.112C820.582 470.28 820.19 469.168 820.19 467.776V460.48H822.614V467.68C822.614 469.52 823.534 470.44 825.374 470.44C826.99 470.44 828.254 469.712 829.166 468.256V460.48H831.59V472H829.238V470.368C828.694 471.056 828.046 471.56 827.294 471.88C826.558 472.2 825.758 472.36 824.894 472.36ZM839.141 472.36C837.973 472.36 837.069 472.024 836.429 471.352C835.805 470.68 835.493 469.728 835.493 468.496V462.352H833.741V460.48H835.493V457.024H837.941V460.48H840.773V462.352H837.941V468.328C837.941 469.096 838.085 469.64 838.373 469.96C838.677 470.28 839.221 470.44 840.005 470.44C840.469 470.44 840.933 470.336 841.397 470.128V472.048C840.789 472.256 840.037 472.36 839.141 472.36ZM852.56 460.48H854.864V462.136C855.408 461.464 856.024 460.96 856.712 460.624C857.4 460.288 858.112 460.12 858.848 460.12C859.776 460.12 860.512 460.28 861.056 460.6C861.6 460.904 862 461.376 862.256 462.016C862.768 461.392 863.392 460.92 864.128 460.6C864.88 460.28 865.632 460.12 866.384 460.12C867.792 460.12 868.808 460.48 869.432 461.2C870.056 461.904 870.368 462.952 870.368 464.344V472H868.016V464.656C868.016 463.712 867.84 463.048 867.488 462.664C867.136 462.264 866.536 462.064 865.688 462.064C864.472 462.064 863.48 462.592 862.712 463.648C862.744 463.888 862.76 464.28 862.76 464.824V472H860.408V464.656C860.408 463.712 860.248 463.048 859.928 462.664C859.608 462.264 859.032 462.064 858.2 462.064C856.984 462.064 855.896 462.752 854.936 464.128V472H852.56V460.48ZM879.709 472.36C877.581 472.36 875.909 471.832 874.693 470.776C873.493 469.704 872.893 468.2 872.893 466.264C872.893 464.376 873.429 462.88 874.501 461.776C875.589 460.672 877.133 460.12 879.133 460.12C880.461 460.12 881.589 460.376 882.517 460.888C883.445 461.384 884.141 462.08 884.605 462.976C885.085 463.856 885.325 464.864 885.325 466V467.2H875.197C875.277 468.288 875.733 469.104 876.565 469.648C877.413 470.176 878.557 470.44 879.997 470.44C880.733 470.44 881.477 470.376 882.229 470.248C882.981 470.104 883.645 469.92 884.221 469.696V471.64C883.709 471.848 883.029 472.016 882.181 472.144C881.349 472.288 880.525 472.36 879.709 472.36ZM883.045 465.496C883.013 464.408 882.653 463.568 881.965 462.976C881.293 462.368 880.333 462.064 879.085 462.064C877.869 462.064 876.925 462.376 876.253 463C875.581 463.624 875.229 464.456 875.197 465.496H883.045ZM888.814 463.096C888.446 463.096 888.134 462.968 887.878 462.712C887.622 462.456 887.494 462.144 887.494 461.776C887.494 461.408 887.622 461.096 887.878 460.84C888.134 460.568 888.446 460.432 888.814 460.432C889.182 460.432 889.494 460.568 889.75 460.84C890.006 461.096 890.134 461.408 890.134 461.776C890.134 462.128 890.006 462.44 889.75 462.712C889.494 462.968 889.182 463.096 888.814 463.096ZM888.814 471.52C888.446 471.52 888.134 471.392 887.878 471.136C887.622 470.88 887.494 470.568 887.494 470.2C887.494 469.832 887.622 469.52 887.878 469.264C888.134 468.992 888.446 468.856 888.814 468.856C889.182 468.856 889.494 468.992 889.75 469.264C890.006 469.52 890.134 469.832 890.134 470.2C890.134 470.552 890.006 470.864 889.75 471.136C889.494 471.392 889.182 471.52 888.814 471.52Z" fill="white"/>
<path d="M396.692 519C396.116 519 395.529 518.925 394.932 518.776C394.335 518.605 393.62 518.36 392.788 518.04C392.02 517.741 391.359 517.517 390.804 517.368C390.249 517.197 389.705 517.112 389.172 517.112C387.679 517.112 386.463 517.72 385.524 518.936V514.68C385.887 514.189 386.377 513.816 386.996 513.56C387.636 513.283 388.361 513.144 389.172 513.144C389.748 513.144 390.324 513.229 390.9 513.4C391.497 513.549 392.212 513.784 393.044 514.104C393.833 514.403 394.505 514.637 395.06 514.808C395.636 514.957 396.18 515.032 396.692 515.032C398.164 515.032 399.369 514.413 400.308 513.176V517.432C399.967 517.944 399.476 518.339 398.836 518.616C398.217 518.872 397.503 519 396.692 519ZM411.519 504.152H416.383L407.263 527H402.399L411.519 504.152ZM429.618 501.016H434.482V531.608H429.618V501.016Z" fill="white"/>
<rect width="393" height="960" transform="translate(1558 124)" fill="url(#paint1_linear_9_47)"/>
<g clip-path="url(#clip0_9_47)">
<rect x="1573.5" y="353" width="362" height="502" rx="4" fill="#212121"/>
<circle cx="1596.5" cy="390.625" r="11" fill="#DB3636"/>
<circle cx="1634.5" cy="390" r="11" fill="#CAB600"/>
<circle cx="1672.5" cy="390.641" r="11" fill="#23B228"/>
<path d="M1591.31 430.929H1586.1V428.865H1598.99V430.929H1593.78V445.641H1591.31V430.929ZM1604.72 446.001C1602.59 446.001 1600.92 445.473 1599.7 444.417C1598.5 443.345 1597.9 441.841 1597.9 439.905C1597.9 438.017 1598.44 436.521 1599.51 435.417C1600.6 434.313 1602.14 433.761 1604.14 433.761C1605.47 433.761 1606.6 434.017 1607.52 434.529C1608.45 435.025 1609.15 435.721 1609.61 436.617C1610.09 437.497 1610.33 438.505 1610.33 439.641V440.841H1600.2C1600.28 441.929 1600.74 442.745 1601.57 443.289C1602.42 443.817 1603.56 444.081 1605 444.081C1605.74 444.081 1606.48 444.017 1607.24 443.889C1607.99 443.745 1608.65 443.561 1609.23 443.337V445.281C1608.72 445.489 1608.04 445.657 1607.19 445.785C1606.36 445.929 1605.53 446.001 1604.72 446.001ZM1608.05 439.137C1608.02 438.049 1607.66 437.209 1606.97 436.617C1606.3 436.009 1605.34 435.705 1604.09 435.705C1602.88 435.705 1601.93 436.017 1601.26 436.641C1600.59 437.265 1600.24 438.097 1600.2 439.137H1608.05ZM1612.98 434.121H1615.33V436.185C1615.81 435.481 1616.49 434.961 1617.35 434.625C1618.23 434.289 1619.25 434.121 1620.4 434.121V436.017C1619.17 436.017 1618.11 436.217 1617.23 436.617C1616.35 437.017 1615.74 437.649 1615.41 438.513V445.641H1612.98V434.121ZM1622.57 434.121H1624.87V435.777C1625.42 435.105 1626.03 434.601 1626.72 434.265C1627.41 433.929 1628.12 433.761 1628.86 433.761C1629.78 433.761 1630.52 433.921 1631.06 434.241C1631.61 434.545 1632.01 435.017 1632.26 435.657C1632.78 435.033 1633.4 434.561 1634.14 434.241C1634.89 433.921 1635.64 433.761 1636.39 433.761C1637.8 433.761 1638.82 434.121 1639.44 434.841C1640.06 435.545 1640.38 436.593 1640.38 437.985V445.641H1638.02V438.297C1638.02 437.353 1637.85 436.689 1637.5 436.305C1637.14 435.905 1636.54 435.705 1635.7 435.705C1634.48 435.705 1633.49 436.233 1632.72 437.289C1632.75 437.529 1632.77 437.921 1632.77 438.465V445.641H1630.42V438.297C1630.42 437.353 1630.26 436.689 1629.94 436.305C1629.62 435.905 1629.04 435.705 1628.21 435.705C1626.99 435.705 1625.9 436.393 1624.94 437.769V445.641H1622.57V434.121ZM1644.8 431.865C1644.4 431.865 1644.06 431.729 1643.79 431.457C1643.52 431.185 1643.38 430.849 1643.38 430.449C1643.38 430.049 1643.52 429.713 1643.79 429.441C1644.06 429.169 1644.4 429.033 1644.8 429.033C1645.21 429.033 1645.56 429.169 1645.83 429.441C1646.12 429.713 1646.26 430.049 1646.26 430.449C1646.26 430.849 1646.12 431.185 1645.83 431.457C1645.56 431.729 1645.21 431.865 1644.8 431.865ZM1643.57 434.121H1646.04V445.641H1643.57V434.121ZM1649.38 434.121H1651.73V435.777C1652.28 435.089 1652.94 434.585 1653.72 434.265C1654.52 433.929 1655.36 433.761 1656.22 433.761C1657.76 433.761 1658.9 434.169 1659.65 434.985C1660.4 435.801 1660.78 436.897 1660.78 438.273V445.641H1658.36V438.513C1658.36 436.641 1657.46 435.705 1655.67 435.705C1654.9 435.705 1654.18 435.889 1653.51 436.257C1652.85 436.609 1652.28 437.153 1651.8 437.889V445.641H1649.38V434.121ZM1667.55 446.001C1666.16 446.001 1665.04 445.649 1664.19 444.945C1663.36 444.225 1662.94 443.257 1662.94 442.041C1662.94 440.761 1663.34 439.777 1664.14 439.089C1664.96 438.385 1666.11 438.033 1667.6 438.033C1669.18 438.033 1670.52 438.353 1671.63 438.993V438.393C1671.63 437.481 1671.35 436.809 1670.79 436.377C1670.24 435.929 1669.38 435.705 1668.2 435.705C1667.49 435.705 1666.8 435.777 1666.13 435.921C1665.48 436.049 1664.88 436.233 1664.36 436.473V434.505C1664.84 434.281 1665.46 434.105 1666.23 433.977C1667 433.833 1667.74 433.761 1668.46 433.761C1670.36 433.761 1671.77 434.185 1672.68 435.033C1673.61 435.865 1674.08 437.025 1674.08 438.513V445.641H1671.8V444.345C1671.3 444.889 1670.71 445.305 1670.02 445.593C1669.35 445.865 1668.52 446.001 1667.55 446.001ZM1668.15 444.153C1668.92 444.153 1669.61 444.001 1670.24 443.697C1670.86 443.393 1671.32 442.969 1671.63 442.425V440.865C1670.59 440.193 1669.43 439.857 1668.15 439.857C1667.22 439.857 1666.52 440.041 1666.06 440.409C1665.61 440.761 1665.39 441.305 1665.39 442.041C1665.39 443.449 1666.31 444.153 1668.15 444.153ZM1677.08 427.905H1679.51V445.641H1677.08V427.905ZM1691.52 428.865H1699.22C1700.71 428.865 1701.86 429.249 1702.68 430.017C1703.5 430.785 1703.9 431.905 1703.9 433.377C1703.9 434.209 1703.7 434.945 1703.3 435.585C1702.92 436.209 1702.41 436.673 1701.77 436.977C1703.56 437.505 1704.46 438.809 1704.46 440.889C1704.46 441.865 1704.24 442.713 1703.81 443.433C1703.39 444.137 1702.82 444.681 1702.08 445.065C1701.34 445.449 1700.53 445.641 1699.63 445.641H1691.52V428.865ZM1698.91 436.065C1699.7 436.065 1700.31 435.849 1700.76 435.417C1701.21 434.985 1701.43 434.345 1701.43 433.497C1701.43 432.521 1701.21 431.841 1700.76 431.457C1700.33 431.057 1699.66 430.857 1698.74 430.857H1693.97V436.065H1698.91ZM1699.08 443.649C1700.02 443.649 1700.74 443.441 1701.24 443.025C1701.74 442.609 1701.98 441.897 1701.98 440.889C1701.98 439.881 1701.72 439.161 1701.19 438.729C1700.68 438.297 1699.9 438.081 1698.86 438.081H1693.97V443.649H1699.08ZM1711.69 446.001C1710.14 446.001 1708.96 445.585 1708.16 444.753C1707.38 443.921 1706.99 442.809 1706.99 441.417V434.121H1709.41V441.321C1709.41 443.161 1710.33 444.081 1712.17 444.081C1713.79 444.081 1715.05 443.353 1715.96 441.897V434.121H1718.39V445.641H1716.03V444.009C1715.49 444.697 1714.84 445.201 1714.09 445.521C1713.35 445.841 1712.55 446.001 1711.69 446.001ZM1722.91 431.865C1722.51 431.865 1722.18 431.729 1721.91 431.457C1721.63 431.185 1721.5 430.849 1721.5 430.449C1721.5 430.049 1721.63 429.713 1721.91 429.441C1722.18 429.169 1722.51 429.033 1722.91 429.033C1723.33 429.033 1723.67 429.169 1723.95 429.441C1724.23 429.713 1724.38 430.049 1724.38 430.449C1724.38 430.849 1724.23 431.185 1723.95 431.457C1723.67 431.729 1723.33 431.865 1722.91 431.865ZM1721.69 434.121H1724.16V445.641H1721.69V434.121ZM1727.5 427.905H1729.92V445.641H1727.5V427.905ZM1738.62 446.001C1737.47 446.001 1736.43 445.753 1735.5 445.257C1734.59 444.745 1733.87 444.033 1733.34 443.121C1732.83 442.193 1732.57 441.121 1732.57 439.905C1732.57 438.705 1732.83 437.641 1733.34 436.713C1733.87 435.785 1734.59 435.065 1735.5 434.553C1736.43 434.025 1737.47 433.761 1738.62 433.761C1740.7 433.761 1742.28 434.393 1743.35 435.657V427.905H1745.77V445.641H1743.42V443.961C1742.78 444.665 1742.08 445.185 1741.31 445.521C1740.56 445.841 1739.66 446.001 1738.62 446.001ZM1739.17 444.081C1740.16 444.081 1741.03 443.825 1741.76 443.313C1742.52 442.785 1743.04 442.081 1743.35 441.201V438.609C1743.08 437.729 1742.56 437.025 1741.79 436.497C1741.04 435.969 1740.16 435.705 1739.17 435.705C1738.39 435.705 1737.68 435.881 1737.04 436.233C1736.41 436.585 1735.92 437.081 1735.55 437.721C1735.2 438.361 1735.02 439.089 1735.02 439.905C1735.02 440.721 1735.2 441.449 1735.55 442.089C1735.92 442.729 1736.41 443.225 1737.04 443.577C1737.68 443.913 1738.39 444.081 1739.17 444.081ZM1755.23 446.001C1753.1 446.001 1751.43 445.473 1750.22 444.417C1749.02 443.345 1748.42 441.841 1748.42 439.905C1748.42 438.017 1748.95 436.521 1750.02 435.417C1751.11 434.313 1752.66 433.761 1754.66 433.761C1755.98 433.761 1757.11 434.017 1758.04 434.529C1758.97 435.025 1759.66 435.721 1760.13 436.617C1760.61 437.497 1760.85 438.505 1760.85 439.641V440.841H1750.72C1750.8 441.929 1751.26 442.745 1752.09 443.289C1752.94 443.817 1754.08 444.081 1755.52 444.081C1756.26 444.081 1757 444.017 1757.75 443.889C1758.5 443.745 1759.17 443.561 1759.74 443.337V445.281C1759.23 445.489 1758.55 445.657 1757.7 445.785C1756.87 445.929 1756.05 446.001 1755.23 446.001ZM1758.57 439.137C1758.54 438.049 1758.18 437.209 1757.49 436.617C1756.82 436.009 1755.86 435.705 1754.61 435.705C1753.39 435.705 1752.45 436.017 1751.78 436.641C1751.1 437.265 1750.75 438.097 1750.72 439.137H1758.57ZM1769.07 446.001C1767.91 446.001 1766.87 445.753 1765.95 445.257C1765.03 444.745 1764.31 444.033 1763.79 443.121C1763.27 442.193 1763.02 441.121 1763.02 439.905C1763.02 438.705 1763.27 437.641 1763.79 436.713C1764.31 435.785 1765.03 435.065 1765.95 434.553C1766.87 434.025 1767.91 433.761 1769.07 433.761C1771.15 433.761 1772.72 434.393 1773.79 435.657V427.905H1776.22V445.641H1773.87V443.961C1773.23 444.665 1772.52 445.185 1771.75 445.521C1771 445.841 1770.11 446.001 1769.07 446.001ZM1769.62 444.081C1770.61 444.081 1771.47 443.825 1772.21 443.313C1772.96 442.785 1773.49 442.081 1773.79 441.201V438.609C1773.52 437.729 1773 437.025 1772.23 436.497C1771.48 435.969 1770.61 435.705 1769.62 435.705C1768.83 435.705 1768.12 435.881 1767.48 436.233C1766.86 436.585 1766.36 437.081 1765.99 437.721C1765.64 438.361 1765.47 439.089 1765.47 439.905C1765.47 440.721 1765.64 441.449 1765.99 442.089C1766.36 442.729 1766.86 443.225 1767.48 443.577C1768.12 443.913 1768.83 444.081 1769.62 444.081ZM1795.38 446.001C1794.34 446.001 1793.43 445.841 1792.66 445.521C1791.91 445.185 1791.22 444.665 1790.58 443.961V445.641H1788.22V427.905H1790.65V435.657C1791.18 435.033 1791.86 434.561 1792.69 434.241C1793.52 433.921 1794.42 433.761 1795.38 433.761C1796.53 433.761 1797.56 434.025 1798.47 434.553C1799.4 435.065 1800.12 435.785 1800.63 436.713C1801.16 437.641 1801.42 438.705 1801.42 439.905C1801.42 441.121 1801.16 442.193 1800.63 443.121C1800.12 444.033 1799.4 444.745 1798.47 445.257C1797.56 445.753 1796.53 446.001 1795.38 446.001ZM1794.82 444.081C1795.61 444.081 1796.31 443.913 1796.94 443.577C1797.58 443.225 1798.07 442.729 1798.42 442.089C1798.79 441.449 1798.98 440.721 1798.98 439.905C1798.98 439.089 1798.79 438.361 1798.42 437.721C1798.07 437.081 1797.58 436.585 1796.94 436.233C1796.31 435.881 1795.61 435.705 1794.82 435.705C1793.85 435.705 1792.98 435.969 1792.21 436.497C1791.44 437.025 1790.92 437.729 1790.65 438.609V441.201C1790.95 442.081 1791.47 442.785 1792.21 443.313C1792.96 443.825 1793.83 444.081 1794.82 444.081ZM1804.95 450.393C1804.08 450.393 1803.36 450.305 1802.79 450.129V448.233C1803.2 448.393 1803.71 448.473 1804.32 448.473C1804.88 448.473 1805.32 448.329 1805.64 448.041C1805.96 447.769 1806.25 447.321 1806.51 446.697L1807.06 445.353L1802.02 434.121H1804.51L1808.35 442.977L1811.93 434.121H1814.43L1809.24 446.937C1808.76 448.137 1808.19 449.009 1807.51 449.553C1806.86 450.113 1806 450.393 1804.95 450.393ZM1825.47 428.865H1831.92C1833.73 428.865 1835.15 429.321 1836.19 430.233C1837.25 431.129 1837.78 432.409 1837.78 434.073C1837.78 435.769 1837.26 437.057 1836.22 437.937C1835.18 438.801 1833.75 439.233 1831.92 439.233H1827.91V445.641H1825.47V428.865ZM1831.66 437.193C1832.78 437.193 1833.67 436.961 1834.32 436.497C1834.98 436.033 1835.31 435.225 1835.31 434.073C1835.31 432.921 1834.98 432.113 1834.32 431.649C1833.67 431.169 1832.78 430.929 1831.66 430.929H1827.91V437.193H1831.66ZM1844.95 446.001C1842.82 446.001 1841.15 445.473 1839.93 444.417C1838.73 443.345 1838.13 441.841 1838.13 439.905C1838.13 438.017 1838.67 436.521 1839.74 435.417C1840.83 434.313 1842.37 433.761 1844.37 433.761C1845.7 433.761 1846.83 434.017 1847.76 434.529C1848.69 435.025 1849.38 435.721 1849.85 436.617C1850.33 437.497 1850.57 438.505 1850.57 439.641V440.841H1840.44C1840.52 441.929 1840.97 442.745 1841.81 443.289C1842.65 443.817 1843.8 444.081 1845.24 444.081C1845.97 444.081 1846.72 444.017 1847.47 443.889C1848.22 443.745 1848.89 443.561 1849.46 443.337V445.281C1848.95 445.489 1848.27 445.657 1847.42 445.785C1846.59 445.929 1845.77 446.001 1844.95 446.001ZM1848.29 439.137C1848.25 438.049 1847.89 437.209 1847.21 436.617C1846.53 436.009 1845.57 435.705 1844.33 435.705C1843.11 435.705 1842.17 436.017 1841.49 436.641C1840.82 437.265 1840.47 438.097 1840.44 439.137H1848.29ZM1858.78 446.001C1857.63 446.001 1856.59 445.753 1855.66 445.257C1854.75 444.745 1854.03 444.033 1853.5 443.121C1852.99 442.193 1852.74 441.121 1852.74 439.905C1852.74 438.705 1852.99 437.641 1853.5 436.713C1854.03 435.785 1854.75 435.065 1855.66 434.553C1856.59 434.025 1857.63 433.761 1858.78 433.761C1860.86 433.761 1862.44 434.393 1863.51 435.657V427.905H1865.94V445.641H1863.58V443.961C1862.94 444.665 1862.24 445.185 1861.47 445.521C1860.72 445.841 1859.82 446.001 1858.78 446.001ZM1859.34 444.081C1860.33 444.081 1861.19 443.825 1861.93 443.313C1862.68 442.785 1863.21 442.081 1863.51 441.201V438.609C1863.24 437.729 1862.72 437.025 1861.95 436.497C1861.2 435.969 1860.33 435.705 1859.34 435.705C1858.55 435.705 1857.84 435.881 1857.2 436.233C1856.58 436.585 1856.08 437.081 1855.71 437.721C1855.36 438.361 1855.18 439.089 1855.18 439.905C1855.18 440.721 1855.36 441.449 1855.71 442.089C1856.08 442.729 1856.58 443.225 1857.2 443.577C1857.84 443.913 1858.55 444.081 1859.34 444.081ZM1869.06 434.121H1871.41V436.185C1871.89 435.481 1872.56 434.961 1873.43 434.625C1874.31 434.289 1875.32 434.121 1876.48 434.121V436.017C1875.24 436.017 1874.19 436.217 1873.31 436.617C1872.43 437.017 1871.82 437.649 1871.48 438.513V445.641H1869.06V434.121ZM1884.37 446.001C1883.07 446.001 1881.93 445.761 1880.93 445.281C1879.96 444.785 1879.19 444.081 1878.63 443.169C1878.09 442.241 1877.81 441.153 1877.81 439.905C1877.81 438.673 1878.09 437.593 1878.63 436.665C1879.17 435.737 1879.94 435.025 1880.93 434.529C1881.93 434.017 1883.07 433.761 1884.37 433.761C1885.66 433.761 1886.81 434.017 1887.8 434.529C1888.79 435.025 1889.56 435.737 1890.1 436.665C1890.66 437.593 1890.94 438.673 1890.94 439.905C1890.94 441.153 1890.66 442.241 1890.1 443.169C1889.56 444.081 1888.79 444.785 1887.8 445.281C1886.81 445.761 1885.66 446.001 1884.37 446.001ZM1884.37 444.081C1885.61 444.081 1886.61 443.697 1887.34 442.929C1888.08 442.161 1888.45 441.153 1888.45 439.905C1888.45 438.609 1888.08 437.585 1887.34 436.833C1886.61 436.081 1885.61 435.705 1884.37 435.705C1883.12 435.705 1882.13 436.081 1881.39 436.833C1880.65 437.585 1880.29 438.609 1880.29 439.905C1880.29 441.153 1880.65 442.161 1881.39 442.929C1882.13 443.697 1883.12 444.081 1884.37 444.081ZM1587.06 464.865H1592.46C1594.27 464.865 1595.84 465.201 1597.16 465.873C1598.49 466.545 1599.51 467.505 1600.21 468.753C1600.93 470.001 1601.29 471.473 1601.29 473.169C1601.29 475.953 1600.48 478.065 1598.87 479.505C1597.27 480.929 1595.02 481.641 1592.12 481.641H1587.06V464.865ZM1592.1 479.601C1594.34 479.601 1596.02 479.049 1597.14 477.945C1598.26 476.841 1598.82 475.249 1598.82 473.169C1598.82 471.249 1598.27 469.729 1597.16 468.609C1596.08 467.489 1594.52 466.929 1592.48 466.929H1589.51V479.601H1592.1ZM1605.35 467.865C1604.95 467.865 1604.62 467.729 1604.34 467.457C1604.07 467.185 1603.94 466.849 1603.94 466.449C1603.94 466.049 1604.07 465.713 1604.34 465.441C1604.62 465.169 1604.95 465.033 1605.35 465.033C1605.77 465.033 1606.11 465.169 1606.38 465.441C1606.67 465.713 1606.82 466.049 1606.82 466.449C1606.82 466.849 1606.67 467.185 1606.38 467.457C1606.11 467.729 1605.77 467.865 1605.35 467.865ZM1604.13 470.121H1606.6V481.641H1604.13V470.121ZM1614.06 482.001C1612.67 482.001 1611.55 481.649 1610.7 480.945C1609.87 480.225 1609.46 479.257 1609.46 478.041C1609.46 476.761 1609.86 475.777 1610.66 475.089C1611.47 474.385 1612.62 474.033 1614.11 474.033C1615.7 474.033 1617.04 474.353 1618.14 474.993V474.393C1618.14 473.481 1617.86 472.809 1617.3 472.377C1616.76 471.929 1615.9 471.705 1614.71 471.705C1614.01 471.705 1613.32 471.777 1612.65 471.921C1611.99 472.049 1611.4 472.233 1610.87 472.473V470.505C1611.35 470.281 1611.98 470.105 1612.74 469.977C1613.51 469.833 1614.26 469.761 1614.98 469.761C1616.88 469.761 1618.29 470.185 1619.2 471.033C1620.13 471.865 1620.59 473.025 1620.59 474.513V481.641H1618.31V480.345C1617.82 480.889 1617.22 481.305 1616.54 481.593C1615.86 481.865 1615.04 482.001 1614.06 482.001ZM1614.66 480.153C1615.43 480.153 1616.13 480.001 1616.75 479.697C1617.38 479.393 1617.84 478.969 1618.14 478.425V476.865C1617.1 476.193 1615.94 475.857 1614.66 475.857C1613.74 475.857 1613.04 476.041 1612.58 476.409C1612.13 476.761 1611.9 477.305 1611.9 478.041C1611.9 479.449 1612.82 480.153 1614.66 480.153ZM1627.5 482.001C1626.7 482.001 1625.85 481.897 1624.95 481.689C1624.06 481.497 1623.35 481.233 1622.84 480.897V478.833C1623.46 479.201 1624.18 479.505 1625 479.745C1625.82 479.969 1626.61 480.081 1627.38 480.081C1628.24 480.081 1628.87 479.977 1629.27 479.769C1629.67 479.561 1629.87 479.225 1629.87 478.761C1629.87 478.409 1629.78 478.129 1629.58 477.921C1629.41 477.697 1629.1 477.497 1628.65 477.321C1628.22 477.145 1627.56 476.937 1626.68 476.697C1625.74 476.425 1624.98 476.153 1624.42 475.881C1623.88 475.593 1623.46 475.233 1623.18 474.801C1622.9 474.369 1622.77 473.809 1622.77 473.121C1622.77 472.017 1623.2 471.185 1624.06 470.625C1624.94 470.049 1626.12 469.761 1627.59 469.761C1628.36 469.761 1629.11 469.833 1629.85 469.977C1630.58 470.121 1631.18 470.321 1631.62 470.577V472.593C1631.16 472.321 1630.58 472.105 1629.9 471.945C1629.22 471.785 1628.54 471.705 1627.83 471.705C1626.98 471.705 1626.34 471.809 1625.89 472.017C1625.44 472.225 1625.22 472.593 1625.22 473.121C1625.22 473.457 1625.31 473.729 1625.5 473.937C1625.7 474.145 1626 474.329 1626.42 474.489C1626.85 474.633 1627.53 474.825 1628.46 475.065C1629.91 475.465 1630.92 475.937 1631.48 476.481C1632.06 477.025 1632.34 477.777 1632.34 478.737C1632.34 479.729 1631.94 480.521 1631.12 481.113C1630.3 481.705 1629.1 482.001 1627.5 482.001ZM1650.23 464.505H1652.68L1645.84 481.641H1643.39L1650.23 464.505ZM1663.71 464.865H1666.3L1671.58 478.305L1676.86 464.865H1679.46L1672.76 481.641H1670.41L1663.71 464.865ZM1690.5 473.505H1698.16V475.497H1690.5V473.505ZM1712.83 467.505L1709.21 470.121V467.793L1713.17 464.865H1715.28V481.641H1712.83V467.505ZM1719.05 481.641C1718.73 481.641 1718.46 481.537 1718.24 481.329C1718.03 481.105 1717.92 480.833 1717.92 480.513C1717.92 480.193 1718.03 479.921 1718.24 479.697C1718.46 479.473 1718.73 479.361 1719.05 479.361C1719.37 479.361 1719.64 479.473 1719.87 479.697C1720.09 479.921 1720.2 480.193 1720.2 480.513C1720.2 480.833 1720.09 481.105 1719.87 481.329C1719.64 481.537 1719.37 481.641 1719.05 481.641ZM1729.34 482.001C1727.9 482.001 1726.65 481.649 1725.59 480.945C1724.55 480.241 1723.75 479.233 1723.19 477.921C1722.63 476.609 1722.35 475.057 1722.35 473.265C1722.35 471.473 1722.63 469.921 1723.17 468.609C1723.73 467.281 1724.53 466.265 1725.57 465.561C1726.63 464.857 1727.88 464.505 1729.34 464.505C1730.79 464.505 1732.04 464.857 1733.08 465.561C1734.14 466.265 1734.94 467.281 1735.48 468.609C1736.04 469.921 1736.32 471.473 1736.32 473.265C1736.32 475.057 1736.04 476.609 1735.48 477.921C1734.92 479.233 1734.11 480.241 1733.06 480.945C1732.02 481.649 1730.78 482.001 1729.34 482.001ZM1729.34 479.841C1730.76 479.841 1731.87 479.257 1732.67 478.089C1733.49 476.905 1733.9 475.305 1733.9 473.289C1733.9 471.273 1733.5 469.673 1732.7 468.489C1731.9 467.305 1730.78 466.713 1729.34 466.713C1727.9 466.713 1726.78 467.305 1725.98 468.489C1725.18 469.673 1724.78 471.273 1724.78 473.289C1724.78 475.305 1725.18 476.905 1725.98 478.089C1726.79 479.257 1727.91 479.841 1729.34 479.841ZM1739.61 481.641C1739.29 481.641 1739.01 481.537 1738.79 481.329C1738.58 481.105 1738.48 480.833 1738.48 480.513C1738.48 480.193 1738.58 479.921 1738.79 479.697C1739.01 479.473 1739.29 479.361 1739.61 479.361C1739.93 479.361 1740.2 479.473 1740.42 479.697C1740.65 479.921 1740.76 480.193 1740.76 480.513C1740.76 480.833 1740.65 481.105 1740.42 481.329C1740.2 481.537 1739.93 481.641 1739.61 481.641ZM1749.89 482.001C1748.45 482.001 1747.2 481.649 1746.15 480.945C1745.11 480.241 1744.31 479.233 1743.75 477.921C1743.19 476.609 1742.91 475.057 1742.91 473.265C1742.91 471.473 1743.18 469.921 1743.72 468.609C1744.28 467.281 1745.08 466.265 1746.12 465.561C1747.18 464.857 1748.44 464.505 1749.89 464.505C1751.35 464.505 1752.6 464.857 1753.64 465.561C1754.69 466.265 1755.49 467.281 1756.04 468.609C1756.6 469.921 1756.88 471.473 1756.88 473.265C1756.88 475.057 1756.6 476.609 1756.04 477.921C1755.48 479.233 1754.67 480.241 1753.61 480.945C1752.57 481.649 1751.33 482.001 1749.89 482.001ZM1749.89 479.841C1751.32 479.841 1752.43 479.257 1753.23 478.089C1754.04 476.905 1754.45 475.305 1754.45 473.289C1754.45 471.273 1754.05 469.673 1753.25 468.489C1752.45 467.305 1751.33 466.713 1749.89 466.713C1748.45 466.713 1747.33 467.305 1746.53 468.489C1745.73 469.673 1745.33 471.273 1745.33 473.289C1745.33 475.305 1745.73 476.905 1746.53 478.089C1747.35 479.257 1748.47 479.841 1749.89 479.841Z" fill="white"/>
<path d="M1590.32 521.057H1585.83V518.263H1598.15V521.057H1593.66V533.641H1590.32V521.057ZM1599.77 537.997C1599.33 537.997 1598.88 537.967 1598.41 537.909C1597.96 537.85 1597.61 537.769 1597.38 537.667V535.181C1597.8 535.342 1598.27 535.423 1598.78 535.423C1599.31 535.423 1599.71 535.305 1599.97 535.071C1600.25 534.836 1600.48 534.469 1600.65 533.971L1601.01 533.069L1596.43 523.081H1599.77L1602.77 530.363L1605.6 523.081H1608.93L1604.44 534.367C1603.94 535.613 1603.32 536.53 1602.59 537.117C1601.86 537.703 1600.92 537.997 1599.77 537.997ZM1609.78 523.081H1612.99V524.247C1614.07 523.249 1615.39 522.751 1616.95 522.751C1618.05 522.751 1619.02 522.985 1619.86 523.455C1620.71 523.909 1621.37 524.562 1621.84 525.413C1622.31 526.249 1622.54 527.224 1622.54 528.339C1622.54 529.439 1622.31 530.414 1621.84 531.265C1621.37 532.115 1620.71 532.783 1619.86 533.267C1619.02 533.736 1618.05 533.971 1616.95 533.971C1616.21 533.971 1615.5 533.861 1614.82 533.641C1614.15 533.421 1613.57 533.105 1613.1 532.695V538.459H1609.78V523.081ZM1616.12 531.375C1617.01 531.375 1617.74 531.096 1618.3 530.539C1618.87 529.981 1619.15 529.248 1619.15 528.339C1619.15 527.429 1618.87 526.703 1618.3 526.161C1617.74 525.618 1617.01 525.347 1616.12 525.347C1615.43 525.347 1614.81 525.53 1614.27 525.897C1613.73 526.263 1613.34 526.747 1613.1 527.349V529.351C1613.32 529.967 1613.71 530.458 1614.25 530.825C1614.81 531.191 1615.43 531.375 1616.12 531.375ZM1630.49 533.971C1628.46 533.971 1626.87 533.487 1625.71 532.519C1624.55 531.536 1623.97 530.165 1623.97 528.405C1623.97 526.659 1624.49 525.281 1625.51 524.269C1626.55 523.257 1628.04 522.751 1629.96 522.751C1631.22 522.751 1632.29 522.985 1633.17 523.455C1634.05 523.924 1634.72 524.577 1635.17 525.413C1635.63 526.234 1635.85 527.165 1635.85 528.207V529.549H1627.14C1627.38 530.898 1628.64 531.573 1630.93 531.573C1631.6 531.573 1632.3 531.514 1633.02 531.397C1633.73 531.279 1634.36 531.118 1634.89 530.913V533.245C1634.37 533.465 1633.71 533.641 1632.91 533.773C1632.1 533.905 1631.29 533.971 1630.49 533.971ZM1632.71 527.393C1632.66 526.689 1632.4 526.146 1631.92 525.765C1631.43 525.369 1630.76 525.171 1629.91 525.171C1629.08 525.171 1628.42 525.369 1627.93 525.765C1627.45 526.161 1627.19 526.703 1627.14 527.393H1632.71ZM1644.94 523.081H1648.26L1650.2 529.681L1652.09 523.081H1654.86L1656.78 529.681L1658.69 523.081H1662.01L1658.52 533.641H1655.5L1653.48 527.085L1651.45 533.641H1648.44L1644.94 523.081ZM1663.88 517.383H1667.2V524.291C1667.7 523.777 1668.27 523.396 1668.9 523.147C1669.53 522.883 1670.2 522.751 1670.92 522.751C1672.36 522.751 1673.43 523.139 1674.13 523.917C1674.85 524.679 1675.21 525.713 1675.21 527.019V533.641H1671.89V527.393C1671.89 526.029 1671.26 525.347 1670 525.347C1669.44 525.347 1668.92 525.486 1668.43 525.765C1667.95 526.029 1667.54 526.425 1667.2 526.953V533.641H1663.88V517.383ZM1681.35 533.971C1680.06 533.971 1679.01 533.648 1678.19 533.003C1677.38 532.343 1676.98 531.448 1676.98 530.319C1676.98 529.145 1677.36 528.236 1678.14 527.591C1678.92 526.931 1680.02 526.601 1681.44 526.601C1682.07 526.601 1682.67 526.667 1683.25 526.799C1683.82 526.931 1684.32 527.114 1684.76 527.349V527.085C1684.76 526.425 1684.53 525.941 1684.06 525.633C1683.59 525.325 1682.87 525.171 1681.9 525.171C1680.61 525.171 1679.42 525.413 1678.34 525.897V523.477C1678.81 523.271 1679.42 523.103 1680.17 522.971C1680.91 522.824 1681.66 522.751 1682.41 522.751C1684.32 522.751 1685.74 523.147 1686.68 523.939C1687.62 524.716 1688.09 525.809 1688.09 527.217V533.641H1684.96V532.673C1684.07 533.538 1682.86 533.971 1681.35 533.971ZM1682.26 531.771C1682.8 531.771 1683.29 531.668 1683.73 531.463C1684.17 531.257 1684.51 530.971 1684.76 530.605V529.549C1684.02 529.05 1683.19 528.801 1682.3 528.801C1681.68 528.801 1681.21 528.933 1680.87 529.197C1680.55 529.446 1680.39 529.82 1680.39 530.319C1680.39 530.788 1680.55 531.147 1680.87 531.397C1681.19 531.646 1681.65 531.771 1682.26 531.771ZM1694.15 533.971C1692.92 533.971 1691.98 533.633 1691.33 532.959C1690.7 532.269 1690.39 531.316 1690.39 530.099V525.479H1688.85V523.081H1690.39V519.913H1693.71V523.081H1696.19V525.479H1693.71V529.659C1693.71 530.275 1693.83 530.722 1694.06 531.001C1694.29 531.265 1694.71 531.397 1695.31 531.397C1695.8 531.397 1696.26 531.279 1696.7 531.045V533.531C1696.03 533.824 1695.17 533.971 1694.15 533.971ZM1711.07 533.971C1709.99 533.971 1709.02 533.743 1708.17 533.289C1707.33 532.819 1706.67 532.167 1706.19 531.331C1705.72 530.48 1705.49 529.497 1705.49 528.383C1705.49 527.283 1705.72 526.307 1706.19 525.457C1706.66 524.606 1707.32 523.946 1708.17 523.477C1709.02 522.993 1709.99 522.751 1711.07 522.751C1711.87 522.751 1712.59 522.861 1713.25 523.081C1713.91 523.301 1714.47 523.616 1714.92 524.027V517.383H1718.25V533.641H1715.03V532.497C1714.49 533.01 1713.9 533.384 1713.25 533.619C1712.62 533.853 1711.89 533.971 1711.07 533.971ZM1711.93 531.397C1712.62 531.397 1713.23 531.213 1713.76 530.847C1714.3 530.48 1714.69 529.989 1714.92 529.373V527.371C1714.72 526.769 1714.34 526.285 1713.78 525.919C1713.24 525.537 1712.62 525.347 1711.93 525.347C1711.04 525.347 1710.3 525.625 1709.73 526.183C1709.17 526.74 1708.9 527.473 1708.9 528.383C1708.9 529.292 1709.17 530.025 1709.73 530.583C1710.3 531.125 1711.04 531.397 1711.93 531.397ZM1722.38 521.453C1721.87 521.453 1721.44 521.284 1721.08 520.947C1720.73 520.609 1720.56 520.184 1720.56 519.671C1720.56 519.172 1720.73 518.754 1721.08 518.417C1721.44 518.065 1721.87 517.889 1722.38 517.889C1722.9 517.889 1723.33 518.065 1723.68 518.417C1724.03 518.754 1724.21 519.172 1724.21 519.671C1724.21 520.184 1724.03 520.609 1723.68 520.947C1723.33 521.284 1722.9 521.453 1722.38 521.453ZM1720.71 523.081H1724.05V533.641H1720.71V523.081ZM1731.63 533.971C1730.55 533.971 1729.58 533.743 1728.73 533.289C1727.89 532.819 1727.23 532.167 1726.75 531.331C1726.28 530.48 1726.05 529.497 1726.05 528.383C1726.05 527.283 1726.28 526.307 1726.75 525.457C1727.22 524.606 1727.88 523.946 1728.73 523.477C1729.58 522.993 1730.55 522.751 1731.63 522.751C1732.43 522.751 1733.15 522.861 1733.81 523.081C1734.47 523.301 1735.03 523.616 1735.48 524.027V517.383H1738.81V533.641H1735.59V532.497C1735.05 533.01 1734.46 533.384 1733.81 533.619C1733.18 533.853 1732.46 533.971 1731.63 533.971ZM1732.49 531.397C1733.18 531.397 1733.79 531.213 1734.32 530.847C1734.86 530.48 1735.25 529.989 1735.48 529.373V527.371C1735.28 526.769 1734.9 526.285 1734.34 525.919C1733.8 525.537 1733.18 525.347 1732.49 525.347C1731.6 525.347 1730.86 525.625 1730.29 526.183C1729.73 526.74 1729.46 527.473 1729.46 528.383C1729.46 529.292 1729.73 530.025 1730.29 530.583C1730.86 531.125 1731.6 531.397 1732.49 531.397ZM1751.71 537.997C1751.27 537.997 1750.82 537.967 1750.35 537.909C1749.89 537.85 1749.55 537.769 1749.31 537.667V535.181C1749.74 535.342 1750.21 535.423 1750.72 535.423C1751.25 535.423 1751.65 535.305 1751.91 535.071C1752.19 534.836 1752.42 534.469 1752.59 533.971L1752.94 533.069L1748.37 523.081H1751.71L1754.7 530.363L1757.54 523.081H1760.86L1756.38 534.367C1755.88 535.613 1755.26 536.53 1754.53 537.117C1753.79 537.703 1752.86 537.997 1751.71 537.997ZM1766.76 533.971C1765.48 533.971 1764.36 533.743 1763.39 533.289C1762.44 532.819 1761.7 532.167 1761.17 531.331C1760.66 530.48 1760.4 529.49 1760.4 528.361C1760.4 527.261 1760.66 526.285 1761.17 525.435C1761.7 524.584 1762.44 523.924 1763.39 523.455C1764.36 522.985 1765.48 522.751 1766.76 522.751C1768.02 522.751 1769.13 522.985 1770.08 523.455C1771.05 523.924 1771.79 524.584 1772.3 525.435C1772.83 526.285 1773.09 527.261 1773.09 528.361C1773.09 529.49 1772.83 530.48 1772.3 531.331C1771.79 532.167 1771.05 532.819 1770.1 533.289C1769.15 533.743 1768.03 533.971 1766.76 533.971ZM1766.76 531.375C1767.65 531.375 1768.36 531.103 1768.89 530.561C1769.42 530.003 1769.68 529.27 1769.68 528.361C1769.68 527.422 1769.42 526.689 1768.89 526.161C1768.38 525.618 1767.67 525.347 1766.76 525.347C1765.85 525.347 1765.13 525.618 1764.6 526.161C1764.07 526.689 1763.81 527.422 1763.81 528.361C1763.81 529.27 1764.07 530.003 1764.6 530.561C1765.14 531.103 1765.86 531.375 1766.76 531.375ZM1779.16 533.971C1777.72 533.971 1776.64 533.582 1775.92 532.805C1775.2 532.013 1774.84 530.964 1774.84 529.659V523.081H1778.17V529.307C1778.17 530.685 1778.8 531.375 1780.08 531.375C1780.64 531.375 1781.16 531.243 1781.64 530.979C1782.13 530.715 1782.53 530.319 1782.85 529.791V523.081H1786.17V533.641H1782.96V532.365C1782.49 532.907 1781.92 533.311 1781.25 533.575C1780.59 533.839 1779.89 533.971 1779.16 533.971ZM1795.74 523.081H1799.06L1801 529.681L1802.89 523.081H1805.66L1807.58 529.681L1809.49 523.081H1812.81L1809.32 533.641H1806.3L1804.28 527.085L1802.25 533.641H1799.24L1795.74 523.081ZM1817.41 533.971C1816.12 533.971 1815.07 533.648 1814.25 533.003C1813.44 532.343 1813.04 531.448 1813.04 530.319C1813.04 529.145 1813.42 528.236 1814.2 527.591C1814.98 526.931 1816.08 526.601 1817.5 526.601C1818.13 526.601 1818.73 526.667 1819.31 526.799C1819.88 526.931 1820.38 527.114 1820.82 527.349V527.085C1820.82 526.425 1820.59 525.941 1820.12 525.633C1819.65 525.325 1818.93 525.171 1817.96 525.171C1816.67 525.171 1815.49 525.413 1814.4 525.897V523.477C1814.87 523.271 1815.48 523.103 1816.23 522.971C1816.97 522.824 1817.72 522.751 1818.47 522.751C1820.38 522.751 1821.8 523.147 1822.74 523.939C1823.68 524.716 1824.15 525.809 1824.15 527.217V533.641H1821.02V532.673C1820.13 533.538 1818.92 533.971 1817.41 533.971ZM1818.32 531.771C1818.86 531.771 1819.35 531.668 1819.79 531.463C1820.23 531.257 1820.57 530.971 1820.82 530.605V529.549C1820.08 529.05 1819.25 528.801 1818.36 528.801C1817.74 528.801 1817.27 528.933 1816.93 529.197C1816.61 529.446 1816.45 529.82 1816.45 530.319C1816.45 530.788 1816.61 531.147 1816.93 531.397C1817.25 531.646 1817.71 531.771 1818.32 531.771ZM1826.35 523.081H1829.56V524.379C1830.04 523.836 1830.61 523.433 1831.27 523.169C1831.95 522.89 1832.65 522.751 1833.39 522.751C1834.82 522.751 1835.89 523.139 1836.6 523.917C1837.32 524.679 1837.68 525.713 1837.68 527.019V533.641H1834.35V527.393C1834.35 526.029 1833.72 525.347 1832.46 525.347C1831.9 525.347 1831.38 525.486 1830.9 525.765C1830.42 526.029 1830 526.425 1829.67 526.953V533.641H1826.35V523.081ZM1844.3 533.971C1843.07 533.971 1842.13 533.633 1841.49 532.959C1840.86 532.269 1840.54 531.316 1840.54 530.099V525.479H1839V523.081H1840.54V519.913H1843.86V523.081H1846.35V525.479H1843.86V529.659C1843.86 530.275 1843.98 530.722 1844.21 531.001C1844.45 531.265 1844.87 531.397 1845.47 531.397C1845.95 531.397 1846.41 531.279 1846.85 531.045V533.531C1846.18 533.824 1845.33 533.971 1844.3 533.971ZM1860.5 533.971C1859.27 533.971 1858.33 533.633 1857.69 532.959C1857.05 532.269 1856.74 531.316 1856.74 530.099V525.479H1855.2V523.081H1856.74V519.913H1860.06V523.081H1862.55V525.479H1860.06V529.659C1860.06 530.275 1860.18 530.722 1860.41 531.001C1860.65 531.265 1861.07 531.397 1861.67 531.397C1862.15 531.397 1862.61 531.279 1863.05 531.045V533.531C1862.38 533.824 1861.53 533.971 1860.5 533.971ZM1870.4 533.971C1869.12 533.971 1868 533.743 1867.03 533.289C1866.08 532.819 1865.34 532.167 1864.81 531.331C1864.3 530.48 1864.04 529.49 1864.04 528.361C1864.04 527.261 1864.3 526.285 1864.81 525.435C1865.34 524.584 1866.08 523.924 1867.03 523.455C1868 522.985 1869.12 522.751 1870.4 522.751C1871.66 522.751 1872.77 522.985 1873.72 523.455C1874.69 523.924 1875.43 524.584 1875.94 525.435C1876.47 526.285 1876.73 527.261 1876.73 528.361C1876.73 529.49 1876.47 530.48 1875.94 531.331C1875.43 532.167 1874.7 532.819 1873.74 533.289C1872.79 533.743 1871.67 533.971 1870.4 533.971ZM1870.4 531.375C1871.29 531.375 1872 531.103 1872.53 530.561C1873.06 530.003 1873.32 529.27 1873.32 528.361C1873.32 527.422 1873.06 526.689 1872.53 526.161C1872.02 525.618 1871.31 525.347 1870.4 525.347C1869.49 525.347 1868.77 525.618 1868.24 526.161C1867.71 526.689 1867.45 527.422 1867.45 528.361C1867.45 529.27 1867.71 530.003 1868.24 530.561C1868.78 531.103 1869.5 531.375 1870.4 531.375ZM1586.64 550.383H1589.97V566.641H1586.64V550.383ZM1598.34 566.971C1596.32 566.971 1594.73 566.487 1593.57 565.519C1592.41 564.536 1591.83 563.165 1591.83 561.405C1591.83 559.659 1592.35 558.281 1593.37 557.269C1594.41 556.257 1595.9 555.751 1597.82 555.751C1599.08 555.751 1600.15 555.985 1601.03 556.455C1601.91 556.924 1602.58 557.577 1603.03 558.413C1603.49 559.234 1603.71 560.165 1603.71 561.207V562.549H1595C1595.24 563.898 1596.5 564.573 1598.78 564.573C1599.46 564.573 1600.16 564.514 1600.87 564.397C1601.59 564.279 1602.22 564.118 1602.74 563.913V566.245C1602.23 566.465 1601.57 566.641 1600.76 566.773C1599.96 566.905 1599.15 566.971 1598.34 566.971ZM1600.57 560.393C1600.52 559.689 1600.26 559.146 1599.77 558.765C1599.29 558.369 1598.62 558.171 1597.77 558.171C1596.94 558.171 1596.28 558.369 1595.79 558.765C1595.31 559.161 1595.04 559.703 1595 560.393H1600.57ZM1609.49 566.971C1608.2 566.971 1607.14 566.648 1606.32 566.003C1605.51 565.343 1605.11 564.448 1605.11 563.319C1605.11 562.145 1605.5 561.236 1606.28 560.591C1607.05 559.931 1608.15 559.601 1609.58 559.601C1610.21 559.601 1610.81 559.667 1611.38 559.799C1611.95 559.931 1612.46 560.114 1612.9 560.349V560.085C1612.9 559.425 1612.66 558.941 1612.19 558.633C1611.72 558.325 1611.01 558.171 1610.04 558.171C1608.75 558.171 1607.56 558.413 1606.47 558.897V556.477C1606.94 556.271 1607.55 556.103 1608.3 555.971C1609.05 555.824 1609.8 555.751 1610.54 555.751C1612.45 555.751 1613.87 556.147 1614.81 556.939C1615.75 557.716 1616.22 558.809 1616.22 560.217V566.641H1613.1V565.673C1612.2 566.538 1611 566.971 1609.49 566.971ZM1610.39 564.771C1610.93 564.771 1611.42 564.668 1611.86 564.463C1612.3 564.257 1612.65 563.971 1612.9 563.605V562.549C1612.15 562.05 1611.33 561.801 1610.43 561.801C1609.82 561.801 1609.34 561.933 1609 562.197C1608.68 562.446 1608.52 562.82 1608.52 563.319C1608.52 563.788 1608.68 564.147 1609 564.397C1609.33 564.646 1609.79 564.771 1610.39 564.771ZM1618.42 556.081H1621.63V557.599C1622.06 557.085 1622.65 556.697 1623.41 556.433C1624.18 556.154 1625.04 556.015 1626.01 556.015V558.545C1625 558.545 1624.1 558.699 1623.33 559.007C1622.56 559.315 1622.03 559.784 1621.74 560.415V566.641H1618.42V556.081ZM1627.42 556.081H1630.63V557.379C1631.12 556.836 1631.69 556.433 1632.35 556.169C1633.02 555.89 1633.73 555.751 1634.46 555.751C1635.9 555.751 1636.97 556.139 1637.67 556.917C1638.39 557.679 1638.75 558.713 1638.75 560.019V566.641H1635.43V560.393C1635.43 559.029 1634.8 558.347 1633.54 558.347C1632.98 558.347 1632.46 558.486 1631.98 558.765C1631.49 559.029 1631.08 559.425 1630.74 559.953V566.641H1627.42V556.081ZM1652.59 566.971C1651.3 566.971 1650.24 566.648 1649.42 566.003C1648.61 565.343 1648.21 564.448 1648.21 563.319C1648.21 562.145 1648.6 561.236 1649.37 560.591C1650.15 559.931 1651.25 559.601 1652.67 559.601C1653.3 559.601 1653.91 559.667 1654.48 559.799C1655.05 559.931 1655.56 560.114 1656 560.349V560.085C1656 559.425 1655.76 558.941 1655.29 558.633C1654.82 558.325 1654.1 558.171 1653.14 558.171C1651.85 558.171 1650.66 558.413 1649.57 558.897V556.477C1650.04 556.271 1650.65 556.103 1651.4 555.971C1652.15 555.824 1652.89 555.751 1653.64 555.751C1655.55 555.751 1656.97 556.147 1657.91 556.939C1658.85 557.716 1659.32 558.809 1659.32 560.217V566.641H1656.19V565.673C1655.3 566.538 1654.1 566.971 1652.59 566.971ZM1653.49 564.771C1654.03 564.771 1654.52 564.668 1654.96 564.463C1655.4 564.257 1655.75 563.971 1656 563.605V562.549C1655.25 562.05 1654.43 561.801 1653.53 561.801C1652.92 561.801 1652.44 561.933 1652.1 562.197C1651.78 562.446 1651.62 562.82 1651.62 563.319C1651.62 563.788 1651.78 564.147 1652.1 564.397C1652.42 564.646 1652.89 564.771 1653.49 564.771ZM1668.69 566.971C1667.87 566.971 1667.13 566.853 1666.49 566.619C1665.86 566.384 1665.27 566.01 1664.73 565.497V566.641H1661.52V550.383H1664.84V557.027C1665.31 556.616 1665.88 556.301 1666.56 556.081C1667.23 555.861 1667.94 555.751 1668.69 555.751C1669.79 555.751 1670.76 555.993 1671.59 556.477C1672.44 556.946 1673.1 557.606 1673.57 558.457C1674.04 559.307 1674.28 560.283 1674.28 561.383C1674.28 562.497 1674.04 563.48 1673.57 564.331C1673.1 565.167 1672.44 565.819 1671.59 566.289C1670.76 566.743 1669.79 566.971 1668.69 566.971ZM1667.85 564.397C1668.75 564.397 1669.47 564.125 1670.03 563.583C1670.6 563.025 1670.89 562.292 1670.89 561.383C1670.89 560.473 1670.6 559.74 1670.03 559.183C1669.47 558.625 1668.75 558.347 1667.85 558.347C1667.16 558.347 1666.54 558.537 1665.98 558.919C1665.44 559.285 1665.06 559.769 1664.84 560.371V562.373C1665.07 562.989 1665.46 563.48 1666.01 563.847C1666.55 564.213 1667.16 564.397 1667.85 564.397ZM1681.51 566.971C1680.23 566.971 1679.11 566.743 1678.14 566.289C1677.19 565.819 1676.45 565.167 1675.92 564.331C1675.41 563.48 1675.15 562.49 1675.15 561.361C1675.15 560.261 1675.41 559.285 1675.92 558.435C1676.45 557.584 1677.19 556.924 1678.14 556.455C1679.11 555.985 1680.23 555.751 1681.51 555.751C1682.77 555.751 1683.88 555.985 1684.83 556.455C1685.8 556.924 1686.54 557.584 1687.05 558.435C1687.58 559.285 1687.84 560.261 1687.84 561.361C1687.84 562.49 1687.58 563.48 1687.05 564.331C1686.54 565.167 1685.8 565.819 1684.85 566.289C1683.9 566.743 1682.78 566.971 1681.51 566.971ZM1681.51 564.375C1682.4 564.375 1683.11 564.103 1683.64 563.561C1684.17 563.003 1684.43 562.27 1684.43 561.361C1684.43 560.422 1684.17 559.689 1683.64 559.161C1683.13 558.618 1682.42 558.347 1681.51 558.347C1680.6 558.347 1679.88 558.618 1679.35 559.161C1678.82 559.689 1678.56 560.422 1678.56 561.361C1678.56 562.27 1678.82 563.003 1679.35 563.561C1679.89 564.103 1680.61 564.375 1681.51 564.375ZM1693.91 566.971C1692.47 566.971 1691.39 566.582 1690.67 565.805C1689.95 565.013 1689.59 563.964 1689.59 562.659V556.081H1692.92V562.307C1692.92 563.685 1693.55 564.375 1694.83 564.375C1695.39 564.375 1695.91 564.243 1696.39 563.979C1696.88 563.715 1697.28 563.319 1697.6 562.791V556.081H1700.92V566.641H1697.71V565.365C1697.24 565.907 1696.67 566.311 1696 566.575C1695.34 566.839 1694.64 566.971 1693.91 566.971ZM1707.66 566.971C1706.43 566.971 1705.49 566.633 1704.85 565.959C1704.22 565.269 1703.9 564.316 1703.9 563.099V558.479H1702.36V556.081H1703.9V552.913H1707.22V556.081H1709.71V558.479H1707.22V562.659C1707.22 563.275 1707.34 563.722 1707.57 564.001C1707.81 564.265 1708.23 564.397 1708.83 564.397C1709.31 564.397 1709.77 564.279 1710.21 564.045V566.531C1709.54 566.824 1708.69 566.971 1707.66 566.971ZM1719.44 556.081H1722.54V557.357C1723 556.843 1723.52 556.447 1724.12 556.169C1724.73 555.89 1725.35 555.751 1725.99 555.751C1726.8 555.751 1727.45 555.883 1727.93 556.147C1728.41 556.396 1728.8 556.77 1729.07 557.269C1729.53 556.785 1730.08 556.411 1730.72 556.147C1731.38 555.883 1732.04 555.751 1732.68 555.751C1734.03 555.751 1734.99 556.095 1735.56 556.785C1736.15 557.474 1736.44 558.471 1736.44 559.777V566.641H1733.28V560.239C1733.28 559.564 1733.14 559.08 1732.88 558.787C1732.62 558.493 1732.19 558.347 1731.6 558.347C1730.78 558.347 1730.12 558.669 1729.62 559.315C1729.65 559.784 1729.67 560.165 1729.67 560.459V566.641H1726.48V560.129C1726.48 559.483 1726.36 559.029 1726.13 558.765C1725.91 558.486 1725.52 558.347 1724.96 558.347C1724.1 558.347 1723.33 558.838 1722.65 559.821V566.641H1719.44V556.081ZM1744.72 566.971C1742.69 566.971 1741.1 566.487 1739.94 565.519C1738.79 564.536 1738.21 563.165 1738.21 561.405C1738.21 559.659 1738.72 558.281 1739.75 557.269C1740.79 556.257 1742.27 555.751 1744.19 555.751C1745.45 555.751 1746.52 555.985 1747.4 556.455C1748.28 556.924 1748.95 557.577 1749.4 558.413C1749.86 559.234 1750.09 560.165 1750.09 561.207V562.549H1741.37C1741.61 563.898 1742.87 564.573 1745.16 564.573C1745.83 564.573 1746.53 564.514 1747.25 564.397C1747.97 564.279 1748.59 564.118 1749.12 563.913V566.245C1748.6 566.465 1747.94 566.641 1747.14 566.773C1746.33 566.905 1745.52 566.971 1744.72 566.971ZM1746.94 560.393C1746.9 559.689 1746.63 559.146 1746.15 558.765C1745.66 558.369 1745 558.171 1744.15 558.171C1743.31 558.171 1742.65 558.369 1742.17 558.765C1741.68 559.161 1741.42 559.703 1741.37 560.393H1746.94ZM1753.16 559.139C1752.7 559.139 1752.3 558.977 1751.97 558.655C1751.64 558.317 1751.48 557.921 1751.48 557.467C1751.48 557.012 1751.64 556.623 1751.97 556.301C1752.3 555.963 1752.7 555.795 1753.16 555.795C1753.62 555.795 1754.02 555.956 1754.34 556.279C1754.67 556.601 1754.83 556.997 1754.83 557.467C1754.83 557.921 1754.66 558.317 1754.32 558.655C1754 558.977 1753.61 559.139 1753.16 559.139ZM1753.16 566.377C1752.7 566.377 1752.3 566.215 1751.97 565.893C1751.64 565.555 1751.48 565.159 1751.48 564.705C1751.48 564.25 1751.64 563.861 1751.97 563.539C1752.3 563.201 1752.7 563.033 1753.16 563.033C1753.62 563.033 1754.02 563.194 1754.34 563.517C1754.67 563.839 1754.83 564.235 1754.83 564.705C1754.83 565.159 1754.66 565.555 1754.32 565.893C1754 566.215 1753.61 566.377 1753.16 566.377Z" fill="white"/>
<path d="M1597.69 620.641C1597.12 620.641 1596.53 620.566 1595.93 620.417C1595.33 620.246 1594.62 620.001 1593.79 619.681C1593.02 619.382 1592.36 619.158 1591.8 619.009C1591.25 618.838 1590.71 618.753 1590.17 618.753C1588.68 618.753 1587.46 619.361 1586.52 620.577V616.321C1586.89 615.83 1587.38 615.457 1588 615.201C1588.64 614.923 1589.36 614.785 1590.17 614.785C1590.75 614.785 1591.32 614.87 1591.9 615.041C1592.5 615.19 1593.21 615.425 1594.04 615.745C1594.83 616.043 1595.51 616.278 1596.06 616.449C1596.64 616.598 1597.18 616.673 1597.69 616.673C1599.16 616.673 1600.37 616.054 1601.31 614.817V619.073C1600.97 619.585 1600.48 619.979 1599.84 620.257C1599.22 620.513 1598.5 620.641 1597.69 620.641ZM1612.52 605.793H1617.38L1608.26 628.641H1603.4L1612.52 605.793ZM1630.62 602.657H1635.48V633.249H1630.62V602.657Z" fill="white"/>
</g>
<defs>
<linearGradient id="paint0_linear_9_47" x1="1377.69" y1="399" x2="703.494" y2="408.547" gradientUnits="userSpaceOnUse">
<stop stop-color="#035E7B"/>
<stop offset="1" stop-color="#141B1D"/>
</linearGradient>
<linearGradient id="paint1_linear_9_47" x1="384.813" y1="399" x2="196.463" y2="399.745" gradientUnits="userSpaceOnUse">
<stop stop-color="#035E7B"/>
<stop offset="1" stop-color="#141B1D"/>
</linearGradient>
<clipPath id="clip0_9_47">
<rect x="1573.5" y="353" width="362" height="502" rx="4" fill="white"/>
</clipPath>
</defs>
</svg>
